<?xml version="1.0" encoding="utf-8"?>
<!-- Generator: Adobe Illustrator 19.0.0, SVG Export Plug-In . SVG Version: 6.00 Build 0)  -->
<svg version="1.1" id="Layer_1" xmlns="http://www.w3.org/2000/svg" xmlns:xlink="http://www.w3.org/1999/xlink" x="0px" y="0px"
	 viewBox="0 0 1000 1000" style="enable-background:new 0 0 1000 1000;" xml:space="preserve">
<style type="text/css">
	.st0{fill:#434343;}
</style>
<g id="XMLID_12_">
	<path id="XMLID_850_" class="st0" d="M735,426.3c41.2,7.8,70.2,25.2,87.2,52.2c16.9,27,25.4,69.6,25.4,127.7
		c0,115.3-34.7,209.7-104,283.2c-69.3,73.4-158,110.2-266,110.2c-42.6,0-83.9-7.7-123.9-23c-40.1-15.3-74.5-36.7-103.3-64.2
		c-33-30.2-57.7-62.1-74.1-95.8c-16.5-33.6-24.7-68.1-24.7-103.3c0-39.4,8.5-69.8,25.4-91.3c16.9-21.5,43.7-36.1,80.3-43.9
		c-6.9-16-11.9-29.5-15.1-40.5c-3.2-11-4.8-19.4-4.8-25.4c0-20.6,10.9-41.6,32.6-63.2c21.7-21.5,42.2-32.3,61.4-32.3
		c8.2,0,16.9,1.5,26.1,4.5c9.2,3,19.7,7.9,31.6,14.8c-35.2-99.8-60.9-176.8-76.9-231c-16-54.2-24-91.6-24-112.2
		c0-28.4,7.3-50.9,22-67.6C324.8,8.4,344.7,0,369.8,0c43,0,97.5,96.1,163.4,288.3c11.4,33,20.1,58.3,26.1,76.2
		c5-14.2,12.1-34.3,21.3-60.4C646.5,113.7,703.2,18.5,750.8,18.5c23.3,0,42,7.9,55.9,23.7c14,15.8,20.9,37,20.9,63.5
		c0,20.1-7.7,57-23,110.5C789.4,269.8,766.2,339.8,735,426.3z M243.5,706.4c6.4,7.8,15.3,19.2,26.8,34.3
		c30.2,41.6,58.1,62.5,83.7,62.5c8.7,0,16.5-2.7,23.3-8.2c6.9-5.5,10.3-11.2,10.3-17.2c0-6.9-4.6-18.3-13.7-34.3
		c-9.2-16-21.7-34.1-37.8-54.2c-18.3-23.3-33.5-40.4-45.6-51.1c-12.1-10.7-21.9-16.1-29.2-16.1c-16,0-30.8,8.6-44.3,25.7
		c-13.5,17.2-20.3,37.4-20.3,60.8c0,18.8,4.7,39.7,14.1,62.8c9.4,23.1,23,46.3,40.8,69.7c27,36.2,60.5,63.9,100.6,83.4
		c40,19.5,84.3,29.2,132.8,29.2c89.2,0,163.9-33.3,224.1-99.9c60.2-66.6,90.3-150,90.3-250.2c0-30.7-2.3-55-6.9-73.1
		c-4.6-18.1-12.1-31.2-22.7-39.5c-18.8-15.6-55.3-29.5-109.5-41.9c-54.2-12.4-110.9-18.5-169.9-18.5c-16.5,0-28.1,2.7-35,8.2
		c-6.9,5.5-10.3,14.9-10.3,28.1c0,31.1,17.4,53.7,52.2,67.6c34.8,14,91.1,20.9,168.9,20.9h28.1c6.4,0,11.6,2.4,15.4,7.2
		c3.9,4.8,6.5,12,7.9,21.6c-7.8,7.3-23.8,15.7-48.1,25.1c-24.3,9.4-42.8,18.6-55.6,27.8c-27.5,20.1-49.5,44-66.2,71.7
		c-16.7,27.7-25.1,53.9-25.1,78.6c0,15.1,3.5,33.3,10.6,54.6c7.1,21.3,10.6,34.4,10.6,39.5v4.8l-1.4,6.2
		c-20.1-1.4-36-13.1-47.7-35.4c-11.7-22.2-17.5-51.8-17.5-88.9V762c-3.7,3.2-7.2,5.5-10.6,6.9c-3.4,1.4-7.2,2.1-11.3,2.1
		c-4.1,0-8-0.3-11.7-1c-3.7-0.7-7.8-1.7-12.4-3.1c1.4,5,2.4,10,3.1,14.8c0.7,4.8,1,8.6,1,11.3c0,16.9-6.6,31.5-19.9,43.6
		c-13.3,12.1-29.1,18.2-47.4,18.2c-28.8,0-58.1-14.1-87.9-42.2c-29.8-28.1-44.6-55.7-44.6-82.7c0-5,0.6-9.5,1.7-13.4
		C238.8,712.4,240.8,709.1,243.5,706.4z M449.5,722.8c7.8,0,14.9-3.5,21.3-10.6c6.4-7.1,9.6-14.8,9.6-23c0-8.7-6.3-28.9-18.9-60.8
		c-12.6-31.8-28.3-63-47-93.7c-13.7-22.9-27.2-40.2-40.5-51.8c-13.3-11.7-25.9-17.5-37.8-17.5c-9.6,0-20.3,6.1-31.9,18.2
		c-11.7,12.1-17.5,23.5-17.5,34c0,11,5.7,27.5,17.2,49.4c11.4,22,26.8,45.3,46,70c20.1,27,39.1,48.1,57,63.2
		C424.8,715.3,438.9,722.8,449.5,722.8z M516.7,391.3l-74.1-214.2c-19.2-54.5-34.1-90-44.6-106.7c-10.5-16.7-22-25.1-34.3-25.1
		c-9.6,0-17.4,3.7-23.3,11c-5.9,7.3-8.9,17.2-8.9,29.5c0,21.1,8,57.7,24,109.8c16,52.2,40,120.6,72.1,205.3c2.7-5,6.6-8.6,11.7-10.6
		c5-2.1,11.9-3.1,20.6-3.1c2.7,0,8.2,0.2,16.5,0.7C484.5,388.3,498,389.5,516.7,391.3z M594.3,599.3c-19.7-0.9-38.3-3-55.9-6.2
		c-17.6-3.2-34.4-7.8-50.5-13.7c7.3,14.7,13.8,29.3,19.6,43.9c5.7,14.7,10.4,29.1,14.1,43.2c11-13.7,22.5-26.2,34.7-37.4
		C568.3,617.9,581,608,594.3,599.3z M685.6,414.6c30.7-83.3,54.6-152.1,71.7-206.3c17.2-54.2,25.7-87.5,25.7-99.9
		c0-13.3-2.9-23.6-8.6-30.9c-5.7-7.3-13.6-11-23.7-11c-12.8,0-25.9,10.6-39.1,31.9c-13.3,21.3-27.9,55.5-43.9,102.6l-68.6,198.4
		L685.6,414.6z"/>
</g>
</svg>
