<?xml version="1.0" encoding="utf-8"?>
<!-- Generator: Adobe Illustrator 19.0.0, SVG Export Plug-In . SVG Version: 6.00 Build 0)  -->
<svg version="1.1" id="Layer_1" xmlns="http://www.w3.org/2000/svg" xmlns:xlink="http://www.w3.org/1999/xlink" x="0px" y="0px"
	 viewBox="0 0 1000 1000" style="enable-background:new 0 0 1000 1000;" xml:space="preserve">
<style type="text/css">
	.st0{fill:#434343;}
</style>
<g id="XMLID_17_">
	<g id="XMLID_71_">
		<path id="XMLID_79_" class="st0" d="M696.2,449.7c-64.4,0-73.4,64.3-73.4,64.3h136.9C759.7,513.9,760.6,449.7,696.2,449.7z"/>
		<path id="XMLID_78_" class="st0" d="M385.4,513.9H264v111.5h107.5c1.8,0,4.6,0,7.8,0c17.3-0.4,50.1-5.4,50.1-54.2
			C429.4,513.4,385.4,513.9,385.4,513.9z"/>
		<path id="XMLID_73_" class="st0" d="M499.6,0C223.6,0-0.1,223.7-0.1,499.7s223.7,499.8,499.8,499.8c276,0,499.7-223.7,499.7-499.8
			C999.4,223.7,775.6,0,499.6,0z M604.8,307.1h172v51.3h-172V307.1z M517.9,576.4c0,127.3-132.4,123.1-132.4,123.1H264h-3.6h-92
			v-417h92h3.6h121.4c65.9,0,118,36.4,118,111s-63.6,79.4-63.6,79.4C523.7,472.9,517.9,576.4,517.9,576.4z M839.7,569.6H623.6
			c0,77.4,73.4,72.6,73.4,72.6c69.3,0,66.9-44.9,66.9-44.9h73.4c0,119.1-142.7,110.9-142.7,110.9c-171.2,0-160.2-159.4-160.2-159.4
			s-0.2-160.2,160.2-160.2C863.3,388.6,839.7,569.6,839.7,569.6z"/>
		<path id="XMLID_72_" class="st0" d="M414.9,400c0-43.4-29.5-43.4-29.5-43.4h-15.6H264v93h113.9C397.6,449.7,414.9,443.3,414.9,400
			z"/>
	</g>
</g>
</svg>
