<?xml version="1.0" encoding="utf-8"?>
<!-- Generator: Adobe Illustrator 19.0.0, SVG Export Plug-In . SVG Version: 6.00 Build 0)  -->
<svg version="1.1" id="Layer_1" xmlns="http://www.w3.org/2000/svg" xmlns:xlink="http://www.w3.org/1999/xlink" x="0px" y="0px"
	 viewBox="0 0 1000 1000" style="enable-background:new 0 0 1000 1000;" xml:space="preserve">
<style type="text/css">
	.st0{fill:#434343;}
</style>
<path id="XMLID_857_" class="st0" d="M1000.7,272.4l-86.6,17.7c51.7-39.9,62.4-120.7,62.4-120.7l-104.3,63.2
	C835.6,152.4,754.7,96.6,660.8,96.6c-128.3,0-232.3,104-232.3,232.3c0,18.3,2.2,36.1,6.2,53.1c-129.8-49.7-332.2-127.5-363-138.9
	c-15.9,56.6-12.4,119,14.6,176.4c11.1,23.5,25.3,44.6,41.9,62.9c-38.6-1.6-67.5-2.7-77.4-3c2.7,51.8,23.2,102.9,62,143.3
	c14.1,14.7,29.8,27.1,46.5,37.1c-39.2,10.1-71.7,18.5-80.1,20.8c10.6,29.5,31.4,55.4,60.8,72c22,12.4,58.6,21.8,98.6,26.2
	c-54.1,17.1-111.7,26.4-171.5,26.4c-23.2,0-46.1-1.4-68.6-4.1c92.2,64.1,204.2,101.8,325,101.8c300.6,0,546.7-232.8,568-528
	C963.7,341.2,1000.7,272.4,1000.7,272.4z"/>
</svg>
