<?xml version="1.0" encoding="utf-8"?>
<!-- Generator: Adobe Illustrator 18.0.0, SVG Export Plug-In . SVG Version: 6.00 Build 0)  -->
<!DOCTYPE svg PUBLIC "-//W3C//DTD SVG 1.1//EN" "http://www.w3.org/Graphics/SVG/1.1/DTD/svg11.dtd">
<svg version="1.1" id="Layer_1" xmlns="http://www.w3.org/2000/svg" xmlns:xlink="http://www.w3.org/1999/xlink" x="0px" y="0px"
	 viewBox="0 0 500 500" enable-background="new 0 0 500 500" xml:space="preserve">
<g>
	<path fill="#F4F4F4" d="M202.1,235.9c0,0,46.6-3.2,46.6-58s-37.9-81.2-86.1-81.2H73.7h-2.2H4.4v304.9h67.2h2.7h88.8
		c0,0,97,3.2,97-89.9C259.5,311.2,263.8,235.9,202.1,235.9z M73.7,150.8h77.5h11.4c0,0,21.7,0,21.7,32s-12.5,36.3-27.1,36.3H73.7
		V150.8L73.7,150.8z M158.2,346.9c-2.2,0-4.3,0-5.4,0H73.7v-81.2h88.8c0,0,32-0.5,32,41.7C194.5,343.1,170.6,346.9,158.2,346.9z"/>
	<path fill="#F4F4F4" d="M388.4,169.8c-117,0-117,117-117,117s-8.1,116.4,117,116.4c0,0,104.5,6,104.5-81.2h-53.6
		c0,0,1.6,33-48.7,33c0,0-53.6,3.8-53.6-53.1h158.2C494.5,302,511.9,169.8,388.4,169.8z M335.8,261.3c0,0,6.5-47.1,53.6-47.1
		s46.6,47.1,46.6,47.1L335.8,261.3L335.8,261.3z"/>
	<rect x="322.8" y="110.2" fill="#F4F4F4" width="125.7" height="37.4"/>
</g>
</svg>
