<?xml version="1.0" encoding="utf-8"?>
<!-- Generator: Adobe Illustrator 18.0.0, SVG Export Plug-In . SVG Version: 6.00 Build 0)  -->
<!DOCTYPE svg PUBLIC "-//W3C//DTD SVG 1.1//EN" "http://www.w3.org/Graphics/SVG/1.1/DTD/svg11.dtd">
<svg version="1.1" id="Layer_1" xmlns="http://www.w3.org/2000/svg" xmlns:xlink="http://www.w3.org/1999/xlink" x="0px" y="0px"
	 viewBox="0 0 500 500" enable-background="new 0 0 500 500" xml:space="preserve">
<path fill="#F4F4F4" d="M494.7,200.7c-3.5-15.8-8-31.7-14.2-46.7c-6.2-15-14.2-29-23-43.1c-8.9-13.2-19.5-25.5-30.1-37
	c-11.5-11.4-23.9-22-37.2-30.8c-13.3-8.8-27.5-16.7-42.6-22.9c-15.1-6.2-31-11.4-47-15C283.7,1.8,266.8,0,250,0s-33.7,1.8-50.5,5.3
	c-16,3.5-31.9,7.9-47,15c-15.1,6.2-29.3,14.1-42.6,22.9S84.2,62.5,72.7,73.9s-21.3,23.8-30.1,37s-16.8,27.3-23,42.3S8,184,5.3,199.8
	C1.8,216.5,0,233.3,0,250s1.8,34.3,5.3,50.2s8,31.7,14.2,46.7c6.2,15,14.2,29,23,42.3c8.9,13.2,19.5,25.5,30.1,37
	c11.5,11.4,23.9,22,37.2,30.8s27.5,16.7,42.6,22.9c15.1,6.2,31,11.4,47,15c16.8,3.5,33.7,5.3,50.5,5.3s33.7-1.8,50.5-5.3
	c16-3.5,31.9-7.9,47-15c15.1-6.2,29.3-14.1,42.6-22.9c13.3-8.8,25.7-19.4,37.2-30.8c11.5-11.4,21.3-23.8,30.1-37
	c8.9-13.2,16.8-28.2,23-42.3c6.2-15,11.5-30.8,14.2-46.7c3.5-16.7,5.3-33.5,5.3-50.2C500,234.2,498.2,217.4,494.7,200.7z
	 M462.8,249.1c-2.7-0.9-75.4-15.8-148.9-7c-1.8-3.5-2.7-7-4.4-11.4c-4.4-10.6-8.9-21.1-14.2-30.8c84.2-34.3,118.8-84.5,118.8-84.5
	C444.1,151.4,462.8,198.1,462.8,249.1z M391,90.7c-0.9,0.9-31,47.5-111.7,77.5c-36.3-66.9-76.2-120.6-79.8-125
	c16-3.5,32.8-6.2,49.6-6.2C304.1,37,352.8,57.2,391,90.7z M198.6,43.1L198.6,43.1C198.6,43.1,197.7,44,198.6,43.1
	C197.7,44,197.7,44,198.6,43.1z M158.7,58.1c2.7,3.5,42.6,57.2,79.8,123.2C135.6,208.6,47,207.7,40.8,207.7
	C54.1,140.8,98.4,86.3,158.7,58.1z M35.5,250.9c0-2.6,0-4.4,0-7c3.5,0,109,2.6,219.9-30.8c6.2,12.3,12.4,23.8,17.7,36.1
	c-2.7,0.9-5.3,1.8-8.9,2.6c-115.2,37-173.8,140.8-173.8,140.8l0,0C56.7,356.5,35.5,306.3,35.5,250.9z M249.1,465.7
	c-51.4,0-99.3-18.5-136.5-49.3c2.7,2.6,4.4,3.5,4.4,3.5s40.8-89.8,167.6-133.8c0.9,0,0.9,0,1.8-0.9c30.1,78.3,42.6,143.5,46.1,162.9
	C307.6,459.5,279.3,465.7,249.1,465.7z M368.8,428.7c-1.8-13.2-13.3-75.7-41.7-153.2c69.1-11.4,128.5,7.9,133,9.7
	C451.2,345.1,416.7,396.1,368.8,428.7z"/>
</svg>
