<?xml version="1.0" encoding="UTF-8" standalone="no"?>
<svg width="49px" height="48px" viewBox="0 0 49 48" version="1.1" xmlns="http://www.w3.org/2000/svg" xmlns:xlink="http://www.w3.org/1999/xlink" xmlns:sketch="http://www.bohemiancoding.com/sketch/ns">
    <!-- Generator: Sketch 3.1.1 (8761) - http://www.bohemiancoding.com/sketch -->
    <title>github</title>
    <desc>Created with Sketch.</desc>
    <defs></defs>
    <g id="Welcome" stroke="none" stroke-width="1" fill="none" fill-rule="evenodd" sketch:type="MSPage">
        <g id="Retina-Display" sketch:type="MSArtboardGroup" transform="translate(-1812.000000, -1594.000000)" fill="#000000">
            <g id="github" sketch:type="MSLayerGroup" transform="translate(1812.000000, 1594.000000)">
                <g id="Group" sketch:type="MSShapeGroup">
                    <path d="M24.3402,-0.0837 C10.7392,-0.0837 -0.2898,10.943 -0.2898,24.5462 C-0.2898,35.4283 6.7675,44.6606 16.5537,47.9175 C17.7845,48.1454 18.2366,47.383 18.2366,46.7326 C18.2366,46.1456 18.2139,44.205 18.2032,42.1469 C11.3511,43.637 9.9053,39.2409 9.9053,39.2409 C8.7848,36.3942 7.1706,35.637 7.1706,35.637 C4.9357,34.1083 7.3391,34.1398 7.3391,34.1398 C9.8121,34.3135 11.1146,36.6783 11.1146,36.6783 C13.3113,40.4434 16.8764,39.3548 18.2821,38.7255 C18.5032,37.1338 19.1412,36.0469 19.8458,35.4319 C14.3751,34.8093 8.624,32.6972 8.624,23.2597 C8.624,20.5709 9.5863,18.3736 11.162,16.6487 C10.9063,16.0281 10.0631,13.5232 11.4006,10.1304 C11.4006,10.1304 13.469,9.4688 18.1753,12.6554 C20.1401,12.1096 22.2472,11.8359 24.3403,11.8264 C26.4333,11.8359 28.542,12.1096 30.5103,12.6554 C35.2115,9.4688 37.2768,10.1304 37.2768,10.1304 C38.6174,13.5232 37.7742,16.0281 37.5185,16.6487 C39.0978,18.3736 40.0533,20.5708 40.0533,23.2597 C40.0533,32.7199 34.2915,34.8025 28.8068,35.4124 C29.6902,36.1768 30.4772,37.6756 30.4772,39.9734 C30.4772,43.2689 30.449,45.9213 30.449,46.7326 C30.449,47.3882 30.8922,48.1562 32.1405,47.9144 C41.9217,44.6539 48.9701,35.4248 48.9701,24.5462 C48.9701,10.943 37.9426,-0.0837 24.3402,-0.0837 L24.3402,-0.0837 Z" id="Shape"></path>
                    <path d="M9.0389,35.2793 C8.9847,35.402 8.792,35.4386 8.6167,35.3546 C8.4379,35.2742 8.3379,35.1073 8.3956,34.9846 C8.4486,34.8586 8.6413,34.8236 8.8198,34.9077 C8.9987,34.9882 9.1007,35.1566 9.0389,35.2793 L9.0389,35.2793 L9.0389,35.2793 Z" id="Shape"></path>
                    <path d="M10.0366,36.3922 C9.9192,36.5008 9.6893,36.4503 9.5335,36.2783 C9.3722,36.1065 9.3423,35.8767 9.4615,35.7665 C9.5826,35.6577 9.8053,35.7086 9.9665,35.8804 C10.1279,36.0541 10.1593,36.2819 10.0366,36.3922 L10.0366,36.3922 L10.0366,36.3922 Z" id="Shape"></path>
                    <path d="M11.0078,37.8105 C10.8568,37.9156 10.6099,37.8172 10.4573,37.5982 C10.3063,37.3791 10.3063,37.1163 10.4608,37.011 C10.6134,36.9059 10.8568,37.0006 11.0113,37.2178 C11.1619,37.4406 11.1619,37.7034 11.0078,37.8105 L11.0078,37.8105 L11.0078,37.8105 Z" id="Shape"></path>
                    <path d="M12.3381,39.1812 C12.203,39.3301 11.9154,39.2898 11.7052,39.0867 C11.4897,38.8883 11.4299,38.6064 11.5649,38.4574 C11.702,38.3084 11.9912,38.3502 12.203,38.5518 C12.4169,38.7501 12.4818,39.0337 12.3381,39.1812 L12.3381,39.1812 L12.3381,39.1812 Z" id="Shape"></path>
                    <path d="M14.1735,39.9769 C14.1138,40.1696 13.837,40.2573 13.5581,40.1753 C13.2793,40.0908 13.0973,39.865 13.1534,39.6702 C13.2111,39.4759 13.4895,39.3847 13.7703,39.4723 C14.0488,39.5563 14.2312,39.7805 14.1735,39.9769 L14.1735,39.9769 L14.1735,39.9769 Z" id="Shape"></path>
                    <path d="M16.1893,40.1243 C16.196,40.3274 15.9594,40.4959 15.6667,40.4995 C15.3723,40.5062 15.1337,40.3418 15.1306,40.1418 C15.1306,39.9366 15.3619,39.7701 15.6564,39.765 C15.9491,39.7594 16.1893,39.9227 16.1893,40.1243 L16.1893,40.1243 L16.1893,40.1243 Z" id="Shape"></path>
                    <path d="M18.0649,39.8052 C18.0999,40.0032 17.8963,40.2067 17.6055,40.2609 C17.3196,40.3135 17.0551,40.1908 17.0185,39.9944 C16.9831,39.7913 17.1901,39.5878 17.4758,39.5352 C17.767,39.4846 18.0278,39.6036 18.0649,39.8052 L18.0649,39.8052 L18.0649,39.8052 Z" id="Shape"></path>
                </g>
            </g>
        </g>
    </g>
</svg>