<?xml version="1.0" encoding="utf-8"?>
<!-- Generator: Adobe Illustrator 18.0.0, SVG Export Plug-In . SVG Version: 6.00 Build 0)  -->
<!DOCTYPE svg PUBLIC "-//W3C//DTD SVG 1.1//EN" "http://www.w3.org/Graphics/SVG/1.1/DTD/svg11.dtd">
<svg version="1.1" id="Layer_1" xmlns:sketch="http://www.bohemiancoding.com/sketch/ns"
	 xmlns="http://www.w3.org/2000/svg" xmlns:xlink="http://www.w3.org/1999/xlink" x="0px" y="0px" viewBox="0 0 500 500"
	 enable-background="new 0 0 500 500" xml:space="preserve">
<title>github</title>
<desc>Created with Sketch.</desc>
<g id="Welcome" sketch:type="MSPage">
	<g id="Retina-Display" transform="translate(-1812.000000, -1594.000000)" sketch:type="MSArtboardGroup">
		<g id="github" transform="translate(1812.000000, 1594.000000)" sketch:type="MSLayerGroup">
			<g id="Group" sketch:type="MSShapeGroup">
				<path id="Shape" fill="#F4F4F4" d="M249.5,0C111.5,0-0.1,114.5-0.1,256.1c0,113.5,72,209.2,170.4,243.6
					c12.2,2.1,17.2-5.2,17.2-12.5c0-6.2,0-26,0-47.9c-70,15.6-84.2-30.2-84.2-30.2C92.2,379.9,76,371.6,76,371.6
					C53.7,356,78,356,78,356c25.4,2.1,38.5,26,38.5,26c22.3,39.6,58.8,28.1,73,20.8c2-16.7,9.1-28.1,16.2-34.3
					c-55.8-6.2-113.6-28.1-113.6-127c0-28.1,10.1-51,25.4-68.7c-3-6.2-11.2-32.3,2-67.7c0,0,21.3-7.3,69,26
					c20.3-5.2,41.6-8.3,62.9-8.3s42.6,3.1,62.9,8.3c47.7-33.3,69-26,69-26c13.2,35.4,5.1,61.4,2,67.7c16.2,17.7,25.4,40.6,25.4,68.7
					c0,98.9-58.8,119.7-113.6,127c9.1,8.3,17.2,23.9,17.2,47.9c0,34.3,0,61.4,0,70.8c0,7.3,4.1,14.6,17.2,12.5
					C428,466.3,500,369.5,500,256.1C500,114.5,387.4,0,249.5,0L249.5,0z"/>
				<path id="Shape_1_" fill="#F4F4F4" d="M94.3,368.5c-1,1-2,2.1-4.1,1c-2-1-3-2.1-2-4.2c1-1,2-2.1,4.1-1
					C94.3,365.3,95.3,367.4,94.3,368.5L94.3,368.5L94.3,368.5z"/>
				<path id="Shape_2_" fill="#F4F4F4" d="M104.4,379.9c-1,1-3,1-5.1-1c-2-2.1-2-4.2-1-5.2c1-1,3-1,5.1,1
					C105.4,376.8,106.4,378.9,104.4,379.9L104.4,379.9L104.4,379.9z"/>
				<path id="Shape_3_" fill="#F4F4F4" d="M114.6,394.5c-2,1-4.1,0-6.1-2.1c-2-2.1-2-5.2,0-6.2s4.1,0,6.1,2.1
					S116.6,393.5,114.6,394.5L114.6,394.5L114.6,394.5z"/>
				<path id="Shape_4_" fill="#F4F4F4" d="M127.7,409.1c-1,1-4.1,1-6.1-1c-2-2.1-3-5.2-1-6.2c1-1,4.1-1,6.1,1
					C128.8,404.9,129.8,407,127.7,409.1L127.7,409.1L127.7,409.1z"/>
				<path id="Shape_5_" fill="#F4F4F4" d="M147,417.4c-1,2.1-3,3.1-6.1,2.1c-3-1-5.1-3.1-4.1-5.2s3-3.1,6.1-2.1
					C145,413.2,147,415.3,147,417.4L147,417.4L147,417.4z"/>
				<path id="Shape_6_" fill="#F4F4F4" d="M167.3,418.4c0,2.1-2,4.2-5.1,4.2c-3,0-5.1-2.1-5.1-4.2c0-2.1,2-4.2,5.1-4.2
					C164.3,415.3,167.3,416.4,167.3,418.4L167.3,418.4L167.3,418.4z"/>
				<path id="Shape_7_" fill="#F4F4F4" d="M186.6,415.3c0,2.1-2,4.2-5.1,5.2s-6.1-1-6.1-3.1s2-4.2,5.1-5.2
					C183.5,412.2,185.6,413.2,186.6,415.3L186.6,415.3L186.6,415.3z"/>
			</g>
		</g>
	</g>
</g>
</svg>
