<?xml version="1.0" encoding="utf-8"?>
<!-- Generator: Adobe Illustrator 18.0.0, SVG Export Plug-In . SVG Version: 6.00 Build 0)  -->
<!DOCTYPE svg PUBLIC "-//W3C//DTD SVG 1.0//EN" "http://www.w3.org/TR/2001/REC-SVG-20010904/DTD/svg10.dtd">
<svg version="1.0" id="Layer_1" xmlns="http://www.w3.org/2000/svg" xmlns:xlink="http://www.w3.org/1999/xlink" x="0px" y="0px"
	 viewBox="0 0 1000 1000" enable-background="new 0 0 1000 1000" xml:space="preserve">
<g>
	<path fill="#042F3F" d="M457.1,361.7h-39c-6.1,0-10,6.6-6.9,11.9l150.5,260.6c1.4,2.5,4.1,4,6.9,4h39c6.1,0,10-6.6,6.9-11.9
		L464,365.7C462.6,363.2,460,361.7,457.1,361.7z"/>
	<path fill="#042F3F" d="M510.2,624.3L468.6,553c-1.8-3.1-5-4.7-8.2-4.7h-25.7l12.8,12.6l-36.9,63.3c-3.6,6.2,0.9,14,8.2,14h83.2
		C509.3,638.3,513.9,630.5,510.2,624.3z"/>
	<path fill="#042F3F" d="M606.7,361.7h-84c-7.3,0-11.9,8-8.3,14.3l35.2,61h-2.3l-8.3,16.5h25.7c3.2,0,6.4-1.6,8.3-4.8l42-72.7
		C618.7,369.7,614.1,361.7,606.7,361.7z"/>
	<path fill="#F4F4F4" d="M431.4,361.7h-39c-6.1,0-10,6.6-6.9,11.9L536,634.3c1.4,2.5,4.1,4,6.9,4h39c6.1,0,10-6.6,6.9-11.9
		L438.3,365.7C436.9,363.2,434.3,361.7,431.4,361.7z"/>
	<path fill="#F4F4F4" d="M385,624.3l41.6-71.3c3.6-6.2,12.7-6.2,16.4,0l41.6,71.3c3.6,6.2-0.9,14-8.2,14h-83.2
		C385.9,638.3,381.4,630.5,385,624.3z"/>
	<path fill="#F4F4F4" d="M589.3,376l-42,72.7c-3.7,6.4-12.9,6.4-16.5,0l-42-72.7c-3.7-6.4,0.9-14.3,8.3-14.3h84
		C588.4,361.7,593,369.7,589.3,376z"/>
</g>
</svg>
