<?xml version="1.0" encoding="utf-8"?>
<!-- Generator: Adobe Illustrator 18.0.0, SVG Export Plug-In . SVG Version: 6.00 Build 0)  -->
<!DOCTYPE svg PUBLIC "-//W3C//DTD SVG 1.0//EN" "http://www.w3.org/TR/2001/REC-SVG-20010904/DTD/svg10.dtd">
<svg version="1.0" id="Layer_1" xmlns="http://www.w3.org/2000/svg" xmlns:xlink="http://www.w3.org/1999/xlink" x="0px" y="0px"
	 viewBox="0 0 355.2 474.1" enable-background="new 0 0 355.2 474.1" xml:space="preserve">
<path fill="#F4F4F4" d="M82.4,0H15.5C5,0-1.6,11.4,3.7,20.5l257.9,446.8c2.4,4.2,6.9,6.8,11.8,6.8h66.9c10.5,0,17.1-11.4,11.8-20.5
	L94.2,6.8C91.8,2.6,87.3,0,82.4,0z"/>
<path fill="#F4F4F4" d="M353.9,14.3l-42.1,72.9c-3.7,6.4-12.9,6.4-16.6,0l-42.1-72.9C249.5,8,254.1,0,261.5,0l84.1,0
	C353,0,357.6,8,353.9,14.3z"/>
<path fill="#F4F4F4" d="M1.3,459.7l42.1-72.9c3.7-6.4,12.9-6.4,16.6,0l42.1,72.9c3.7,6.4-0.9,14.3-8.3,14.3H9.6
	C2.2,474.1-2.4,466.1,1.3,459.7z"/>
<circle fill="#F4F4F4" cx="177.9" cy="6" r="6"/>
<circle fill="#F4F4F4" cx="177.9" cy="468.1" r="6"/>
</svg>
