<?xml version="1.0" encoding="UTF-8" standalone="no"?>
<svg width="883px" height="105px" viewBox="0 0 883 105" version="1.1" xmlns="http://www.w3.org/2000/svg" xmlns:xlink="http://www.w3.org/1999/xlink" xmlns:sketch="http://www.bohemiancoding.com/sketch/ns">
    <!-- Generator: Sketch 3.1.1 (8761) - http://www.bohemiancoding.com/sketch -->
    <title>MADEBYSID.COM</title>
    <desc>Created with Sketch.</desc>
    <defs></defs>
    <g id="Welcome" stroke="none" stroke-width="1" fill="none" fill-rule="evenodd" sketch:type="MSPage">
        <g id="Retina-Display" sketch:type="MSArtboardGroup" transform="translate(-955.000000, -101.000000)" fill="#000000">
            <path d="M955.976,204 L963.176,204 L963.176,116.448 L1003.064,174.48 L1003.64,174.48 L1043.528,116.448 L1043.528,204 L1051.016,204 L1051.016,103.2 L1043.96,103.2 L1003.496,162.816 L963.032,103.2 L955.976,103.2 L955.976,204 Z M1072.328,204 L1080.104,204 L1092.92,175.776 L1152.392,175.776 L1165.208,204 L1173.416,204 L1126.472,102.48 L1119.272,102.48 L1072.328,204 Z M1096.088,169.008 L1122.728,110.688 L1149.224,169.008 L1096.088,169.008 Z M1194.728,204 L1228.28,204 C1259.96,204 1281.848,181.968 1281.848,153.6 L1281.848,153.312 C1281.848,124.944 1259.96,103.2 1228.28,103.2 L1194.728,103.2 L1194.728,204 Z M1228.28,110.112 C1256.36,110.112 1274.072,129.696 1274.072,153.6 L1274.072,153.888 C1274.072,177.936 1256.36,197.088 1228.28,197.088 L1202.216,197.088 L1202.216,110.112 L1228.28,110.112 Z M1307.336,204 L1379.768,204 L1379.768,197.088 L1314.824,197.088 L1314.824,156.624 L1372.568,156.624 L1372.568,149.712 L1314.824,149.712 L1314.824,110.112 L1379.048,110.112 L1379.048,103.2 L1307.336,103.2 L1307.336,204 Z M1401.8,204 L1448.456,204 C1470.92,204 1485.752,194.352 1485.752,176.352 L1485.752,176.064 C1485.752,162.384 1477.544,155.616 1465.736,151.584 C1473.224,147.696 1480.136,141.216 1480.136,129.12 L1480.136,128.832 C1480.136,122.064 1477.832,116.592 1473.368,112.128 C1467.608,106.368 1458.536,103.2 1447.016,103.2 L1401.8,103.2 L1401.8,204 Z M1462.424,132 C1462.424,141.216 1454.792,145.68 1443.416,145.68 L1419.224,145.68 L1419.224,118.896 L1444.712,118.896 C1456.088,118.896 1462.424,123.792 1462.424,131.712 L1462.424,132 Z M1468.04,174.192 L1468.04,174.48 C1468.04,183.552 1460.696,188.304 1448.6,188.304 L1419.224,188.304 L1419.224,160.656 L1447.304,160.656 C1461.272,160.656 1468.04,165.696 1468.04,174.192 L1468.04,174.192 Z M1531.112,204 L1548.968,204 L1548.968,163.824 L1589,103.2 L1568.696,103.2 L1540.184,147.696 L1512.104,103.2 L1491.08,103.2 L1531.112,164.256 L1531.112,204 Z M1640.12,205.728 C1664.6,205.728 1680.872,193.488 1680.872,172.896 L1680.872,172.608 C1680.872,153.744 1666.472,146.256 1643.432,141.216 C1629.32,138.048 1625.864,136.032 1625.864,131.424 L1625.864,131.136 C1625.864,127.392 1629.176,124.656 1635.944,124.656 C1644.872,124.656 1654.952,127.968 1664.168,134.592 L1678.136,114.864 C1667.192,106.08 1653.8,101.472 1636.664,101.472 C1612.472,101.472 1597.64,115.008 1597.64,133.728 L1597.64,134.016 C1597.64,154.608 1614.2,160.656 1635.656,165.552 C1649.48,168.864 1652.792,171.024 1652.792,175.344 L1652.792,175.632 C1652.792,179.952 1648.76,182.544 1641.128,182.544 C1629.464,182.544 1618.52,178.368 1608.44,170.448 L1592.888,189.024 C1605.416,200.112 1622.264,205.728 1640.12,205.728 L1640.12,205.728 Z M1695.128,204 L1723.064,204 L1723.064,103.2 L1695.128,103.2 L1695.128,204 Z M1741.496,204 L1779.944,204 C1816.088,204 1837.256,182.4 1837.256,153.312 L1837.256,153.024 C1837.256,123.936 1816.376,103.2 1780.52,103.2 L1741.496,103.2 L1741.496,204 Z M1780.808,127.824 C1797.656,127.824 1808.744,137.328 1808.744,153.456 L1808.744,153.744 C1808.744,170.016 1797.656,179.232 1780.808,179.232 L1769.432,179.232 L1769.432,127.824 L1780.808,127.824 Z" id="MADEBYSID.COM" sketch:type="MSShapeGroup"></path>
        </g>
    </g>
</svg>