<?xml version="1.0" encoding="utf-8"?>
<!-- Generator: Adobe Illustrator 18.0.0, SVG Export Plug-In . SVG Version: 6.00 Build 0)  -->
<!DOCTYPE svg PUBLIC "-//W3C//DTD SVG 1.1//EN" "http://www.w3.org/Graphics/SVG/1.1/DTD/svg11.dtd">
<svg version="1.1" id="Layer_1" xmlns:sketch="http://www.bohemiancoding.com/sketch/ns"
	 xmlns="http://www.w3.org/2000/svg" xmlns:xlink="http://www.w3.org/1999/xlink" x="0px" y="0px" viewBox="0 0 500 500"
	 enable-background="new 0 0 500 500" xml:space="preserve">
<title>twitter</title>
<desc>Created with Sketch.</desc>
<g id="Welcome" sketch:type="MSPage">
	<g id="Retina-Display" transform="translate(-1284.000000, -1598.000000)" sketch:type="MSArtboardGroup">
		<g id="twitter" transform="translate(1284.000000, 1598.000000)" sketch:type="MSLayerGroup">
			<path id="Shape" sketch:type="MSShapeGroup" fill="#F4F4F4" d="M500,94.5c-18.3,8.1-37.6,13.2-58.9,16.3
				c21.3-12.2,37.6-32.5,44.7-56.9c-20.3,12.2-41.7,20.3-65,25.4c-18.3-20.3-45.7-32.5-75.2-32.5c-56.9,0-102.6,45.7-102.6,102.6
				c0,8.1,1.1,16.3,3.1,23.3c-85.4-5-160.6-45.7-211.5-107.6c-9.2,15.2-14.3,32.5-14.3,51.8c0,35.6,18.3,67,45.7,85.3
				c-17.3-1.1-32.5-5.1-46.8-13.2v1.1c0,49.8,35.6,91.4,82.3,100.6c-8.1,2-17.3,4.1-27.5,4.1c-7.1,0-13.2-1.1-19.3-2
				c13.2,40.7,50.8,70.1,95.6,71.2c-33.5,27.4-78.2,44.7-126,44.7c-8.1,0-16.3,0-24.4-1.1c45.7,29.5,99.6,45.7,157.5,45.7
				c189,0,292.7-156.5,292.7-292.7c0-4.1,0-9.2,0-13.2C469.5,133.2,486.7,114.9,500,94.5L500,94.5z"/>
		</g>
	</g>
</g>
</svg>
