<?xml version="1.0" encoding="UTF-8"?>
<svg width="28px" height="28px" viewBox="0 0 28 28" version="1.1" xmlns="http://www.w3.org/2000/svg" xmlns:xlink="http://www.w3.org/1999/xlink">
    <!-- Generator: Sketch 49.1 (51147) - http://www.bohemiancoding.com/sketch -->
    <title>behance</title>
    <desc>Created with Sketch.</desc>
    <defs></defs>
    <g id="Symbols" stroke="none" stroke-width="1" fill="none" fill-rule="evenodd">
        <g id="Footer" transform="translate(-176.000000, 0.000000)" fill="#FFFFFF" fill-rule="nonzero">
            <g id="behance" transform="translate(176.000000, 0.000000)">
                <path d="M19.5021071,12.5916 C17.7007004,12.5916 17.448951,14.392 17.448951,14.392 L21.2783574,14.392 C21.2783388,14.3892 21.3035138,12.5916 19.5021071,12.5916 Z" id="XMLID_79_"></path>
                <path d="M10.8083916,14.3892 L7.41258741,14.3891979 L7.41258741,17.5112 L10.4195804,17.5112 C10.4699301,17.5112 10.5482517,17.5112 10.6377622,17.5112 C11.1216783,17.5 12.0391608,17.36 12.0391608,15.9936 C12.0391608,14.3752 10.8083916,14.3892 10.8083916,14.3892 Z" id="XMLID_78_"></path>
                <path d="M14.0027972,0 C6.28251748,0 0.0251748252,6.2636 0.0251748252,13.9916 C0.0251748252,21.7196 6.28251748,27.986 14.0055944,27.986 C21.7258741,27.986 27.9832168,21.7224 27.9832168,13.9916 C27.9832168,6.2636 21.7230769,0 14.0027972,0 Z M16.9454545,8.5988 L21.7566434,8.5988 L21.7566434,10.0352 L16.9454545,10.0352 L16.9454545,8.5988 Z M14.5146853,16.1392 C14.5146853,19.7036 10.8111888,19.586 10.8111888,19.586 L7.41258741,19.586 L7.31188811,19.586 L4.73846154,19.586 L4.73846154,7.91 L7.31188811,7.91 L7.41258741,7.91 L10.8083916,7.91 C12.6517483,7.91 14.1090909,8.9292 14.1090909,11.018 C14.1090909,13.1068 12.3300699,13.2412 12.3300699,13.2412 C14.6769231,13.2412 14.5146853,16.1392 14.5146853,16.1392 Z M23.5160839,15.9488 L17.4713287,15.9488 C17.4713287,18.116 19.5244755,17.9816 19.5244755,17.9816 C21.4629371,17.9816 21.3958042,16.7244 21.3958042,16.7244 L23.448951,16.7244 C23.448951,20.0592 19.4573427,19.8296 19.4573427,19.8296 C14.6685315,19.8296 14.9762238,15.3664 14.9762238,15.3664 C14.9762238,15.3664 14.9706294,10.8808 19.4573427,10.8808 C24.1762238,10.8808 23.5160839,15.9488 23.5160839,15.9488 Z" id="XMLID_73_"></path>
                <path d="M11.6335664,11.2 C11.6335664,9.9848 10.8083916,9.9848 10.8083916,9.9848 L10.372028,9.9848 L7.41258741,9.9848 L7.41258741,12.5888 L10.5986014,12.5888 C11.1496503,12.5916 11.6335664,12.4124 11.6335664,11.2 Z" id="XMLID_72_"></path>
            </g>
        </g>
    </g>
</svg>