<?xml version="1.0" encoding="UTF-8"?>
<svg width="28px" height="28px" viewBox="0 0 28 28" version="1.1" xmlns="http://www.w3.org/2000/svg" xmlns:xlink="http://www.w3.org/1999/xlink">
    <!-- Generator: Sketch 49.1 (51147) - http://www.bohemiancoding.com/sketch -->
    <title>dribbble</title>
    <desc>Created with Sketch.</desc>
    <defs></defs>
    <g id="Symbols" stroke="none" stroke-width="1" fill="none" fill-rule="evenodd">
        <g id="Footer" transform="translate(-118.000000, 0.000000)" fill="#FFFFFF">
            <g id="dribbble" transform="translate(118.000000, 0.000000)">
                <path d="M14,28 C6.28071587,28 0,21.7220993 0,14 C0,6.28071587 6.28071587,0 14,0 C21.7192841,0 28,6.28071587 28,14 C28,21.7220993 21.7220993,28 14,28 Z M25.8069576,15.9171526 C25.3987533,15.7876533 22.1049668,14.8051478 18.3579328,15.4047858 C19.9231852,19.7035994 20.5594209,23.2028956 20.6804746,23.932033 C23.3661774,22.1190428 25.2748844,19.2447215 25.8069576,15.9171526 Z M18.6732355,25.0271466 C18.4958777,23.9770762 17.8005228,20.3201287 16.1226624,15.9593807 C16.0973256,15.9678263 16.0691735,15.9762719 16.0438367,15.9847175 C9.29861251,18.3354112 6.87753871,23.0114619 6.66358335,23.4534486 C8.69052886,25.0355922 11.2382867,25.9786849 14.0028152,25.9786849 C15.658154,25.9786849 17.2374824,25.6380454 18.6732355,25.0271466 Z M5.1180374,22.0148804 C5.3882968,21.550372 8.67082244,16.117032 14.8389302,14.1238689 C14.9937663,14.0731953 15.1514177,14.0253368 15.309069,13.9802936 C15.0078423,13.3018299 14.6812789,12.620551 14.3406395,11.9505329 C8.36959582,13.7381862 2.57309471,13.6621757 2.04946712,13.6537301 C2.04665192,13.7747838 2.04383672,13.8958375 2.04383672,14.0197064 C2.04383672,17.0910919 3.20651518,19.8950332 5.1180374,22.0148804 Z M2.2943897,11.5704806 C2.8292781,11.5789262 7.75588176,11.5986326 13.3496883,10.1122059 C11.3706012,6.5903881 9.23104766,3.6287955 8.91574502,3.19806958 C5.57128494,4.77458275 3.07138548,7.86004424 2.2943897,11.5704806 Z M11.1988739,2.39292178 C11.5282526,2.83490851 13.7015886,5.7936859 15.6609692,9.39432938 C19.9119244,7.80092499 21.7136537,5.3798512 21.9276091,5.07580937 C19.8162075,3.20088478 17.0376031,2.06354313 14,2.06354313 C13.0372009,2.06072793 12.0969234,2.17615122 11.1988739,2.39292178 Z M23.2563845,6.4580736 C23.0030163,6.79871305 21.0014076,9.36899256 16.5787251,11.1735371 C16.8574301,11.7422079 17.1248743,12.3221396 17.3726121,12.9048864 C17.4598834,13.1103961 17.5471546,13.3159059 17.6287955,13.5214156 C21.6066761,13.0203097 25.562035,13.8226423 25.9561633,13.9070983 C25.9308265,11.0834506 24.9229841,8.49346471 23.2563845,6.4580736 Z" id="XMLID_52_"></path>
            </g>
        </g>
    </g>
</svg>