<?xml version="1.0" encoding="UTF-8"?>
<svg width="28px" height="28px" viewBox="0 0 28 28" version="1.1" xmlns="http://www.w3.org/2000/svg" xmlns:xlink="http://www.w3.org/1999/xlink">
    <!-- Generator: Sketch 49.1 (51147) - http://www.bohemiancoding.com/sketch -->
    <title>linkedin</title>
    <desc>Created with Sketch.</desc>
    <defs></defs>
    <g id="Symbols" stroke="none" stroke-width="1" fill="none" fill-rule="evenodd">
        <g id="Footer" transform="translate(-294.000000, 0.000000)" fill="#FFFFFF" fill-rule="nonzero">
            <g id="linkedin" transform="translate(294.000000, 0.000000)">
                <path d="M25.9132867,0 L2.08671329,0 C0.951048951,0 0.0251748252,0.9044 0.0251748252,2.0188 L0.0251748252,25.9672 C0.0251748252,27.0816 0.948251748,27.986 2.08671329,27.986 L25.9132867,27.986 C27.0545455,27.986 27.9804196,27.0816 27.9804196,25.9672 L27.9804196,2.0188 C27.9832168,0.9044 27.0545455,0 25.9132867,0 Z M8.31888112,23.8476 L4.16783217,23.8476 L4.16783217,10.4916 L8.31888112,10.4916 L8.31888112,23.8476 Z M6.24335664,8.666 C4.91188811,8.666 3.83776224,7.588 3.83776224,6.258 C3.83776224,4.9308 4.91188811,3.85 6.24335664,3.85 C7.56923077,3.85 8.64615385,4.928 8.64615385,6.258 C8.64895105,7.588 7.57202797,8.666 6.24335664,8.666 Z M23.848951,23.8476 L19.7034965,23.8476 L19.7034965,17.3516 C19.7034965,15.8032 19.6755245,13.8096 17.5468531,13.8096 C15.3902098,13.8096 15.0601399,15.498 15.0601399,17.2396 L15.0601399,23.8448 L10.9202797,23.8448 L10.9202797,10.4888 L14.8951049,10.4888 L14.8951049,12.3144 L14.951049,12.3144 C15.5048951,11.2644 16.8587413,10.1584 18.8755245,10.1584 C23.0741259,10.1584 23.848951,12.9248 23.848951,16.52 L23.848951,23.8476 Z" id="XMLID_22_"></path>
            </g>
        </g>
    </g>
</svg>