<?xml version="1.0" encoding="UTF-8"?>
<svg width="28px" height="28px" viewBox="0 0 28 28" version="1.1" xmlns="http://www.w3.org/2000/svg" xmlns:xlink="http://www.w3.org/1999/xlink">
    <!-- Generator: Sketch 49.1 (51147) - http://www.bohemiancoding.com/sketch -->
    <title>Artboard</title>
    <desc>Created with Sketch.</desc>
    <defs></defs>
    <g id="Artboard" stroke="none" stroke-width="1" fill="none" fill-rule="evenodd">
        <path d="M28,14 C28,6.27789474 21.7221053,0 14,0 C6.27789474,0 0,6.27789474 0,14 C0,21.7221053 6.27789474,28 14,28 C14,28 14,28 14,28 C14,28 14,28 14,28 C21.7221053,28 28,21.7221053 28,14 Z M2,13.5 C2,11.9134615 2.29931973,10.3846154 2.8707483,9 C3.7414966,9.60576923 4.80272109,10.0961538 6,10.5288462 C5.89115646,11.4807692 5.83673469,12.4615385 5.83673469,13.5 C5.83673469,14.5384615 5.89115646,15.5192308 6,16.4711538 C4.80272109,16.875 3.7414966,17.3942308 2.8707483,18 C2.29931973,16.6153846 2,15.0865385 2,13.5 Z M19,14.5 C19,15.3841463 18.9716312,16.2073171 18.8865248,17 C17.6382979,16.7256098 16.3333333,16.5731707 15,16.5121951 L15,12.4878049 C16.3333333,12.4268293 17.6382979,12.2743902 18.8865248,12 C18.9432624,12.7926829 19,13.6158537 19,14.5 Z M9,14.5 C9,13.6158537 9.02836879,12.7926829 9.11347518,12 C10.3333333,12.2743902 11.6666667,12.4268293 13,12.4878049 L13,16.5121951 C11.6666667,16.5731707 10.3617021,16.7256098 9.11347518,17 C9.05673759,16.2073171 9,15.3841463 9,14.5 Z M15,10 L15,3 C16.632,3.83539095 18.232,6.19753086 19,9.56790123 C17.72,9.82716049 16.376,9.97119342 15,10 Z M13,3 L13,10 C11.624,9.94238683 10.248,9.79835391 9,9.56790123 C9.768,6.19753086 11.368,3.83539095 13,3 Z M13,18 L13,25 C11.368,24.1934156 9.768,21.8312757 9,18.4609053 C10.28,18.2304527 11.624,18.0576132 13,18 Z M15,25 L15,18 C16.376,18.057377 17.752,18.2008197 19,18.4303279 C18.232,21.8155738 16.632,24.1680328 15,25 Z M21,10.5288462 C22.1972789,10.125 23.2585034,9.60576923 24.1292517,9 C24.6734694,10.3846154 25,11.8846154 25,13.5 C25,15.1153846 24.7006803,16.6153846 24.1292517,18 C23.2585034,17.3942308 22.170068,16.875 21,16.4711538 C21.1088435,15.5192308 21.1632653,14.5384615 21.1632653,13.5 C21.1632653,12.4615385 21.1088435,11.4807692 21,10.5288462 Z M24,6.77777778 C23.2138365,7.25 22.2389937,7.66666667 21.1698113,8 C20.6981132,6.05555556 19.9433962,4.33333333 19,3 C21.0125786,3.86111111 22.7421384,5.16666667 24,6.77777778 Z M9,3 C8.0625,4.33333333 7.3125,6.05555556 6.84375,8 C5.75,7.66666667 4.78125,7.25 4,6.77777778 C5.25,5.16666667 6.96875,3.86111111 9,3 Z M4,20.2222222 C4.78125,19.75 5.71875,19.3333333 6.84375,19 C7.3125,20.9444444 8.0625,22.6666667 9,24 C6.96875,23.1388889 5.25,21.8333333 4,20.2222222 Z M19,24 C19.9433962,22.6666667 20.6981132,20.9444444 21.1698113,19 C22.2704403,19.3333333 23.2138365,19.75 24,20.2222222 C22.7735849,21.8333333 21.0440252,23.1388889 19,24 Z" id="Shape" fill="#A1ADBD" fill-rule="nonzero"></path>
    </g>
</svg>