<?xml version="1.0" encoding="utf-8"?>
<!-- Generator: Adobe Illustrator 19.0.0, SVG Export Plug-In . SVG Version: 6.00 Build 0)  -->
<svg version="1.1" id="Layer_1" xmlns="http://www.w3.org/2000/svg" xmlns:xlink="http://www.w3.org/1999/xlink" x="0px" y="0px"
	 viewBox="0 0 1000 1000" style="enable-background:new 0 0 1000 1000;" xml:space="preserve">
<g id="XMLID_3_">
	<g id="XMLID_50_">
		<g id="XMLID_51_">
			<defs>
				<path id="XMLID_52_" d="M499.6,997C225.4,997,2.3,774,2.3,499.7C2.3,225.5,225.4,2.4,499.6,2.4c274.2,0,497.3,223.1,497.3,497.3
					C996.9,774,773.9,997,499.6,997L499.6,997z M919,567.8c-14.5-4.6-131.5-39.5-264.6-18.2c55.6,152.7,78.2,277,82.5,302.9
					C832.3,788.1,900.1,686,919,567.8L919,567.8z M665.6,891.4c-6.3-37.3-31-167.2-90.6-322.1c-0.9,0.3-1.9,0.6-2.8,0.9
					c-239.6,83.5-325.6,249.6-333.2,265.3c72,56.2,162.5,89.7,260.7,89.7C558.5,925.2,614.6,913.1,665.6,891.4L665.6,891.4z
					 M184.1,784.4c9.6-16.5,126.2-209.5,345.3-280.3c5.5-1.8,11.1-3.5,16.7-5.1c-10.7-24.1-22.3-48.3-34.4-72.1
					c-212.1,63.5-418,60.8-436.6,60.5c-0.1,4.3-0.2,8.6-0.2,13C74.9,609.5,116.2,709.1,184.1,784.4L184.1,784.4z M83.8,413.4
					c19,0.3,194,1,392.7-51.8C406.2,236.5,330.2,131.3,319,116C200.2,172,111.4,281.6,83.8,413.4L83.8,413.4z M400.1,87.4
					c11.7,15.7,88.9,120.8,158.5,248.7c151-56.6,215-142.6,222.6-153.4c-75-66.6-173.7-107-281.6-107
					C465.4,75.6,432,79.7,400.1,87.4L400.1,87.4z M828.4,231.8c-9,12.1-80.1,103.4-237.2,167.5c9.9,20.2,19.4,40.8,28.2,61.5
					c3.1,7.3,6.2,14.6,9.1,21.9c141.3-17.8,281.8,10.7,295.8,13.7C923.4,396.1,887.6,304.1,828.4,231.8L828.4,231.8z"/>
			</defs>
			<use xlink:href="#XMLID_52_"  style="overflow:visible;fill-rule:evenodd;clip-rule:evenodd;fill:#434343;"/>
			<clipPath id="XMLID_2_">
				<use xlink:href="#XMLID_52_"  style="overflow:visible;"/>
			</clipPath>
		</g>
	</g>
</g>
</svg>
