<?xml version="1.0" encoding="utf-8"?>
<!-- Generator: Adobe Illustrator 19.0.0, SVG Export Plug-In . SVG Version: 6.00 Build 0)  -->
<svg version="1.1" id="Layer_1" xmlns="http://www.w3.org/2000/svg" xmlns:xlink="http://www.w3.org/1999/xlink" x="0px" y="0px"
	 viewBox="0 0 1000 1000" style="enable-background:new 0 0 1000 1000;" xml:space="preserve">
<style type="text/css">
	.st0{fill:#434343;}
</style>
<path id="XMLID_22_" class="st0" d="M925.4,0H73.6C33,0-0.1,32.3-0.1,72.1v855.3c0,39.8,33,72.1,73.7,72.1h851.8
	c40.8,0,73.9-32.3,73.9-72.1V72.1C999.4,32.3,966.2,0,925.4,0z M296.4,851.7H148v-477h148.4V851.7z M222.2,309.5
	c-47.6,0-86-38.5-86-86c0-47.4,38.4-86,86-86c47.4,0,85.9,38.5,85.9,86C308.2,271,269.7,309.5,222.2,309.5z M851.6,851.7H703.4
	V619.7c0-55.3-1-126.5-77.1-126.5c-77.1,0-88.9,60.3-88.9,122.5v235.9H389.4v-477h142.1v65.2h2c19.8-37.5,68.2-77,140.3-77
	c150.1,0,177.8,98.8,177.8,227.2V851.7z"/>
</svg>
