<?xml version="1.0" encoding="UTF-8"?>
<svg viewBox="0 0 77 71" version="1.1" xmlns="http://www.w3.org/2000/svg" xmlns:xlink="http://www.w3.org/1999/xlink">
    <!-- Generator: Sketch 53.2 (72643) - https://sketchapp.com -->
    <title>perdoo</title>
    <desc>Created with Sketch.</desc>
    <defs>
        <linearGradient x1="0%" y1="49.9977288%" x2="100%" y2="49.9977288%" id="linearGradient-1">
            <stop stop-color="#175ECA" offset="0%"></stop>
            <stop stop-color="#3B9FF4" offset="100%"></stop>
        </linearGradient>
        <linearGradient x1="0%" y1="49.9977288%" x2="100%" y2="49.9977288%" id="linearGradient-2">
            <stop stop-color="#175ECA" offset="0%"></stop>
            <stop stop-color="#175ECA" offset="86%"></stop>
            <stop stop-color="#175ECA" offset="100%"></stop>
        </linearGradient>
        <linearGradient x1="1.847468e-06%" y1="50%" x2="100%" y2="50%" id="linearGradient-3">
            <stop stop-color="#05A9F4" offset="0%"></stop>
            <stop stop-color="#4CC8F2" offset="100%"></stop>
        </linearGradient>
        <linearGradient x1="2.70383452%" y1="49.9997653%" x2="98.7574396%" y2="49.9997653%" id="linearGradient-4">
            <stop stop-color="#05A9F4" offset="0%"></stop>
            <stop stop-color="#175ECA" offset="100%"></stop>
        </linearGradient>
    </defs>
    <g id="Page-1" stroke="none" stroke-width="1" fill="none" fill-rule="evenodd">
        <g id="perdoo" transform="translate(0.000000, 0.000000)" fill-rule="nonzero">
            <g id="Group-2">
                <g id="Asset-1-Copy">
                    <polygon id="Shape" fill="url(#linearGradient-1)" points="13 71 39.001103 21 65 71 39.001103 71"></polygon>
                    <polygon id="Shape" fill="url(#linearGradient-2)" points="39 21 66 71 39 71"></polygon>
                    <polygon id="Shape" fill="#0D213B" points="21 55 39.0011327 21 57 55 39.0011327 45.6071019"></polygon>
                    <path d="M30.9551525,4 L1.2073498,58.5593555 C0.417266441,59.8442434 -0.000641438945,61.3224671 7.38987202e-07,62.8299905 C7.38987202e-07,67.2646179 3.74301105,71 8.18669464,71 L13.0982545,71 L40,20.8114971 L30.9551525,4 Z" id="Shape" fill="url(#linearGradient-3)"></path>
                    <path d="M76.999997,63.0163575 C77.0012705,61.5434361 76.6015294,60.0989477 75.8451199,58.8431405 L51.2667987,12.8776582 C51.2667987,12.8776582 51.0633828,12.5015122 50.9977648,12.3746464 C38.6681398,-10.6637376 30,5.52834469 30,5.52834469 L64.4472706,71 L69.3795582,71 C73.6381674,71 76.999997,67.3476004 76.999997,63.0163575 Z" id="Shape" fill="url(#linearGradient-4)"></path>
                </g>
            </g>
        </g>
    </g>
</svg>