<?xml version="1.0" encoding="UTF-8"?>
<svg viewBox="0 0 48 48" version="1.1" xmlns="http://www.w3.org/2000/svg" xmlns:xlink="http://www.w3.org/1999/xlink">
    <!-- Generator: Sketch 53.2 (72643) - https://sketchapp.com -->
    <title>postman</title>
    <desc>Created with Sketch.</desc>
    <g id="Page-1" stroke="none" stroke-width="1" fill="none" fill-rule="evenodd">
        <g id="postman" fill-rule="nonzero">
            <path d="M43,9.33 C34.8982418,-1.15914211 19.8277372,-3.09537401 9.33761576,5.00511612 C-1.15250571,13.1056063 -3.09055948,28.1758766 5.00866242,38.6669773 C13.1078843,49.1580779 28.1779203,51.0979536 38.67,43 C43.710099,39.1099717 46.997996,33.3767033 47.8100737,27.0620023 C48.6221513,20.7473014 46.891856,14.3686878 43,9.33 Z" id="Path" fill="#FF6C37"></path>
            <path d="M32.09,15.29 L22,25.41 L19.14,22.55 C29.07,12.58 30.06,13.46 32.09,15.29 Z" id="Path" fill="#FFFFFF"></path>
            <path d="M22,25.77 L22,25.77 C21.9066659,25.7713373 21.8166645,25.7353367 21.75,25.67 L18.85,22.8 C18.7822164,22.7324513 18.7441161,22.6406945 18.7441161,22.545 C18.7441161,22.4493055 18.7822164,22.3575487 18.85,22.29 C28.67,12.48 30,12.93 32.33,15 C32.4059057,15.0607732 32.4500608,15.1527629 32.45,15.25 C32.4583001,15.3503686 32.4216765,15.4492523 32.35,15.52 L22.23,25.67 C22.1683184,25.7306004 22.0863873,25.7662226 22,25.77 Z M19.65,22.55 L22,24.9 L31.6,15.31 C30.9054092,14.4568757 29.6857143,14.2514534 28.75,14.83 C27,15.61 24.18,18 19.62,22.55 L19.65,22.55 Z" id="Shape" fill="#FF6C37"></path>
            <path d="M24.87,28.31 L22.11,25.55 L32.23,15.43 C35,18.15 30.91,22.6 24.87,28.31 Z" id="Path" fill="#FFFFFF"></path>
            <path d="M24.87,28.67 L24.87,28.67 C24.778449,28.6671579 24.6919173,28.6274975 24.63,28.56 L21.85,25.8 C21.7864517,25.7321834 21.7507523,25.642935 21.75,25.55 C21.7511036,25.454151 21.7865904,25.3618852 21.85,25.29 L32,15.17 C32.1447559,15.0389809 32.3652441,15.0389809 32.51,15.17 C33.1591749,15.7693561 33.5227753,16.616545 33.51,17.5 C33.51,20.21 30.43,23.61 25.18,28.57 C25.0994188,28.652316 24.9834932,28.6897114 24.87,28.67 L24.87,28.67 Z M22.62,25.55 C23.96,26.89 24.62,27.55 24.88,27.81 C28.88,24.02 32.7,20.14 32.73,17.49 C32.7344282,16.9481043 32.5506365,16.4214704 32.21,16 L22.62,25.55 Z" id="Shape" fill="#FF6C37"></path>
            <path d="M19.18,22.62 L21.18,24.62 C21.2051806,24.6388854 21.22,24.6685243 21.22,24.7 C21.22,24.7314757 21.2051806,24.7611146 21.18,24.78 L17,25.73 C16.8295919,25.760634 16.6588197,25.6781545 16.57687,25.525637 C16.4949203,25.3731195 16.5203991,25.1851918 16.64,25.06 L19,22.62 C19.0167086,22.585501 19.0516677,22.563589 19.09,22.563589 C19.1283323,22.563589 19.1632914,22.585501 19.18,22.62 L19.18,22.62 Z" id="Path" fill="#FFFFFF"></path>
            <path d="M16.87,26.1 C16.5671666,26.0941949 16.2966915,25.9091259 16.181585,25.6289612 C16.0664786,25.3487965 16.1287192,25.0270303 16.34,24.81 L18.78,22.36 C18.9637039,22.1909801 19.2462961,22.1909801 19.43,22.36 L21.43,24.36 C21.5466841,24.4823606 21.592042,24.6562325 21.55,24.82 C21.499644,24.9820214 21.3658735,25.1043259 21.2,25.14 L16.99,26.04 L16.87,26.1 Z M19.11,23.1 L16.85,25.36 C16.85,25.36 16.85,25.36 16.85,25.36 L20.59,24.55 L19.11,23.1 Z" id="Shape" fill="#FF6C37"></path>
            <path d="M37.46,9.68 C36.0108522,8.28525345 33.7361449,8.22911945 32.2199653,9.55068925 C30.7037857,10.872259 30.4488606,13.1333334 31.6327178,14.7593191 C32.816575,16.3853049 35.0466772,16.837066 36.77,15.8 L34.05,13.08 L37.46,9.68 Z" id="Path" fill="#FFFFFF"></path>
            <path d="M34.77,16.72 C33.0495088,16.7256015 31.4962007,15.6909653 30.8383643,14.1011941 C30.180528,12.5114228 30.548598,10.6817336 31.77,9.47 C33.4121102,7.85318266 36.0409053,7.83105475 37.71,9.42 C37.779998,9.48429529 37.8198882,9.57495476 37.82,9.67 C37.820262,9.76802856 37.7805367,9.86192472 37.71,9.93 L34.56,13.08 L37,15.55 C37.0775248,15.6252823 37.1146462,15.7329346 37.1,15.84 C37.0856914,15.9505829 37.0235357,16.0493008 36.93,16.11 C36.2778672,16.5036708 35.5317233,16.7143874 34.77,16.72 L34.77,16.72 Z M34.77,8.96 C33.3395382,8.96036306 32.0515528,9.82635941 31.5114468,11.1509372 C30.9713407,12.4755151 31.286539,13.995221 32.3088862,14.9957345 C33.3312334,15.9962479 34.8573887,16.2785706 36.17,15.71 L33.8,13.33 C33.7301625,13.2656282 33.6904344,13.174979 33.6904344,13.08 C33.6904344,12.985021 33.7301625,12.8943718 33.8,12.83 L36.93,9.69 C36.3058195,9.22804115 35.546399,8.98544849 34.77,9 L34.77,8.96 Z" id="Shape" fill="#FF6C37"></path>
            <path d="M37.52,9.73 L37.46,9.68 L34.05,13.08 L36.77,15.8 C37.0434111,15.638998 37.2954033,15.4441241 37.52,15.22 C39.0316277,13.702161 39.0316277,11.247839 37.52,9.73 Z" id="Path" fill="#FFFFFF"></path>
            <path d="M36.77,16.16 C36.6774376,16.1574028 36.5888191,16.1219554 36.52,16.06 L33.8,13.33 C33.7301625,13.2656282 33.6904344,13.174979 33.6904344,13.08 C33.6904344,12.985021 33.7301625,12.8943718 33.8,12.83 L37.2,9.42 C37.3428507,9.28412684 37.5671493,9.28412684 37.71,9.42 L37.77,9.48 C38.695989,10.3966543 39.149099,11.6881601 38.9987849,12.982423 C38.8484708,14.2766859 38.1114261,15.4299686 37,16.11 C36.9298679,16.1487878 36.8499057,16.1661709 36.77,16.16 L36.77,16.16 Z M34.56,13.08 L36.82,15.34 C36.9775038,15.2301609 37.1247683,15.1063248 37.26,14.97 C38.5674083,13.6731938 38.6503527,11.5864871 37.45,10.19 L34.56,13.08 Z" id="Shape" fill="#FF6C37"></path>
            <path d="M32.51,15.71 L32.51,15.71 C32.2338826,15.4309085 31.8575976,15.2738641 31.465,15.2738641 C31.0724024,15.2738641 30.6961174,15.4309085 30.42,15.71 L21.42,24.76 L22.92,26.27 L32.49,17.87 C32.7885704,17.5914615 32.9597493,17.2025978 32.9635299,16.7942919 C32.9673105,16.3859861 32.8033615,15.9940194 32.51,15.71 Z" id="Path" fill="#FFFFFF"></path>
            <path d="M22.87,26.63 C22.7754526,26.6275964 22.6856486,26.5880827 22.62,26.52 L21.11,25 C21.0422164,24.9324513 21.0041161,24.8406945 21.0041161,24.745 C21.0041161,24.6493055 21.0422164,24.5575487 21.11,24.49 L30.16,15.49 C30.5036672,15.1431263 30.9717086,14.9479829 31.46,14.9479829 C31.9482914,14.9479829 32.4163328,15.1431263 32.76,15.49 L32.76,15.49 C33.1218271,15.844045 33.3178438,16.3340866 33.3,16.84 C33.2820287,17.3490153 33.0582969,17.8289561 32.68,18.17 L23.11,26.57 C23.0395993,26.6177224 22.9545759,26.6389783 22.87,26.63 L22.87,26.63 Z M21.87,24.76 L22.87,25.76 L32.18,17.58 C32.4162645,17.380732 32.5548212,17.0890338 32.56,16.78 C32.5723311,16.469114 32.4524309,16.1675468 32.23,15.95 C31.7908519,15.5206139 31.0891481,15.5206139 30.65,15.95 L21.87,24.76 Z" id="Shape" fill="#FF6C37"></path>
            <path d="M14.43,35.05 C14.33824,35.0909984 14.2911569,35.1937252 14.32,35.29 L14.72,37.02 C14.7685658,37.2318966 14.6717131,37.4504588 14.4821171,37.5568175 C14.2925212,37.6631762 14.0555155,37.6319004 13.9,37.48 L11.27,34.86 L19.88,26.24 L22.88,26.29 L24.88,28.29 C24.37,28.73 21.47,31.52 14.43,35.05 Z" id="Path" fill="#FFFFFF"></path>
            <path d="M14.24,38 C14.015212,37.9973151 13.8001891,37.9077222 13.64,37.75 L11,35.11 C10.930002,35.0457047 10.8901118,34.9550452 10.89,34.86 C10.889738,34.7619714 10.9294633,34.6680753 11,34.6 L19.63,26 C19.6980753,25.9294633 19.7919714,25.889738 19.89,25.89 L22.89,25.94 C22.9821024,25.9404193 23.0695581,25.9805032 23.13,26.05 L25.13,28.05 C25.2016765,28.1207477 25.2383001,28.2196314 25.23,28.32 C25.2264076,28.4214145 25.1789761,28.5162774 25.1,28.58 L24.94,28.72 C21.8098004,31.3331786 18.3666996,33.5468405 14.69,35.31 L15.07,36.93 C15.1590315,37.2997738 14.9915809,37.6836848 14.66,37.87 C14.5327298,37.9470103 14.3885211,37.9916463 14.24,38 L14.24,38 Z M11.78,34.87 L14.15,37.24 C14.1970173,37.2767073 14.2629827,37.2767073 14.31,37.24 C14.3643001,37.2169671 14.3907694,37.1552055 14.37,37.1 L14,35.37 C13.9341574,35.1150162 14.0548739,34.8486073 14.29,34.73 L14.29,34.73 C17.896511,33.0016269 21.2782511,30.8389251 24.36,28.29 L22.7,26.65 L20.03,26.65 L11.78,34.87 Z" id="Shape" fill="#FF6C37"></path>
            <path d="M9.21,36.92 L11.27,34.86 L14.34,37.92 L9.44,37.59 C9.29304489,37.567398 9.17075226,37.4651505 9.12247707,37.3245228 C9.07420187,37.1838951 9.10791096,37.0280948 9.21,36.92 L9.21,36.92 Z" id="Path" fill="#FFFFFF"></path>
            <path d="M14.34,38.28 L14.34,38.28 L9.42,38 C9.12454379,37.9716186 8.87362117,37.7716646 8.78,37.49 C8.66723758,37.1979068 8.75617235,36.8664227 9,36.67 L9,36.67 L11,34.6 C11.0675487,34.5322164 11.1593055,34.4941161 11.255,34.4941161 C11.3506945,34.4941161 11.4424513,34.5322164 11.51,34.6 L14.57,37.67 C14.676923,37.7739038 14.7087352,37.9329646 14.65,38.07 C14.5940627,38.1924588 14.4744713,38.2734723 14.34,38.28 L14.34,38.28 Z M9.46,37.17 C9.46,37.17 9.46,37.17 9.46,37.17 L13.38,37.44 L11.25,35.31 L9.46,37.17 Z" id="Shape" fill="#FF6C37"></path>
            <polygon id="Path" fill="#FFFFFF" points="23.05 26.49 19.01 27.12 21.34 24.79"></polygon>
            <path d="M19,27.48 C18.8527937,27.4804103 18.7201683,27.3911558 18.6651176,27.25463 C18.6100669,27.1181042 18.6436833,26.9618167 18.75,26.86 L21.08,24.53 C21.1475487,24.4622164 21.2393055,24.4241161 21.335,24.4241161 C21.4306945,24.4241161 21.5224513,24.4622164 21.59,24.53 L23.29,26.24 C23.3886127,26.3316074 23.4239019,26.472764 23.38,26.6 C23.3373175,26.7307597 23.2256214,26.8270495 23.09,26.85 L19.09,27.47 L19,27.48 Z M21.33,25.29 L20.04,26.59 L22.28,26.24 L21.33,25.29 Z" id="Shape" fill="#FF6C37"></path>
            <path d="M23.05,26.49 L20.22,26.86 C20.0609858,26.8926191 19.8992797,26.8177843 19.8212284,26.6754554 C19.743177,26.5331265 19.7670096,26.3565447 19.88,26.24 L21.34,24.79 L23.05,26.49 Z" id="Path" fill="#FFFFFF"></path>
            <path d="M20.14,27.23 C19.8528033,27.221505 19.5973003,27.0453318 19.4872515,26.7799201 C19.3772027,26.5145084 19.4330783,26.209227 19.63,26 L21.09,24.54 C21.1575487,24.4722164 21.2493055,24.4341161 21.345,24.4341161 C21.4406945,24.4341161 21.5324513,24.4722164 21.6,24.54 L23.3,26.25 C23.3957126,26.3459737 23.4294062,26.4875729 23.3871777,26.6163697 C23.3449493,26.7451666 23.2339572,26.8393279 23.1,26.86 L20.28,27.22 L20.14,27.23 Z M20.14,26.5 L20.14,26.5 L22.25,26.23 L21.31,25.29 L20.11,26.5 L20.14,26.5 Z" id="Shape" fill="#FF6C37"></path>
            <path d="M37.54,12 C37.5097474,11.9322691 37.452961,11.8799683 37.3829751,11.8553787 C37.3129891,11.830789 37.2359689,11.8360766 37.17,11.87 C37.033109,11.9373265 36.9753049,12.1018459 37.04,12.24 C37.1894114,12.5364445 37.1502212,12.8930755 36.94,13.15 C36.8868209,13.2009288 36.8567485,13.2713673 36.8567485,13.345 C36.8567485,13.4186327 36.8868209,13.4890712 36.94,13.54 C36.9911887,13.580339 37.0548457,13.6015579 37.12,13.6 C37.2018385,13.6015814 37.2796437,13.5645313 37.33,13.5 C37.6951561,13.08767 37.7778841,12.4967556 37.54,12 Z" id="Path" fill="#FF6C37"></path>
        </g>
    </g>
</svg>