<?xml version="1.0" encoding="utf-8"?>
<!-- Generator: Adobe Illustrator 18.1.1, SVG Export Plug-In . SVG Version: 6.00 Build 0)  -->
<svg version="1.1" id="Layer_1" xmlns="http://www.w3.org/2000/svg" xmlns:xlink="http://www.w3.org/1999/xlink" x="0px" y="0px"
	 viewBox="0 0 500 500" enable-background="new 0 0 500 500" xml:space="preserve">
<path fill="#FFFFFF" d="M138.7,249.9c0-32.3,11.4-59.7,34.2-82.1c4.4-4.4,9.1-8.3,13.9-11.8l3.9-9.4h-68.6l-20.9,64.5l-18.9-64.5H11
	l89.5,218.6l39.6-96.1C139.2,262.9,138.7,256.5,138.7,249.9z"/>
<path fill="#FFFFFF" d="M256.4,141.5c29.3,0,54.4,10.7,75.4,32c21,21.3,31.4,46.8,31.4,76.5c0,30.2-10.6,55.8-31.7,76.9
	c-21.1,21.1-46.8,31.7-76.9,31.7c-30,0-55.6-10.6-76.8-31.8c-21.2-21.2-31.8-46.8-31.8-76.8c0-30.3,10.7-55.9,32-76.9
	C199.3,152,225.5,141.5,256.4,141.5z M254.5,202.4c-12.6,0-23.4,4.6-32.3,13.9c-8.9,9.3-13.3,20.5-13.3,33.6
	c0,13.1,4.5,24.3,13.4,33.6c8.9,9.3,19.7,13.9,32.2,13.9c12.7,0,23.5-4.6,32.3-13.9c8.8-9.2,13.3-20.5,13.3-33.7
	c0-13.2-4.4-24.5-13.3-33.7C278,207,267.3,202.4,254.5,202.4z"/>
<path fill="#FFFFFF" d="M433.4,247.2l53.8-100.6h-62.9l-19.4,47l-24.1-47h-64.1l4.2,8c5.5,4,10.8,8.5,15.9,13.7
	c22,22.4,33.2,49.1,33.5,80.2l0.2,0.3l-0.2,0.3c0,0.3,0,0.5,0,0.8c0,32.2-11.3,59.6-33.8,82.1c-6.3,6.3-13,11.8-20.1,16.3l-2.8,5.1
	h63.6l21.5-50.1l25.4,50.1H489L433.4,247.2z"/>
</svg>
