<?xml version="1.0" encoding="utf-8"?>
<!-- Generator: Adobe Illustrator 19.0.0, SVG Export Plug-In . SVG Version: 6.00 Build 0)  -->
<svg version="1.1" id="Layer_1" xmlns="http://www.w3.org/2000/svg" xmlns:xlink="http://www.w3.org/1999/xlink" x="0px" y="0px"
	 viewBox="0 0 1000 1000" style="enable-background:new 0 0 1000 1000;" xml:space="preserve">
<style type="text/css">
	.st0{fill-rule:evenodd;clip-rule:evenodd;fill:#434343;}
</style>
<path id="XMLID_858_" class="st0" d="M499.6,11.7c-276.3,0-500.4,224-500.4,500.4c0,221.1,143.4,408.6,342.2,474.8
	c25,4.6,34.2-10.9,34.2-24.1c0-11.9-0.4-43.3-0.7-85.1c-139.2,30.2-168.6-67.1-168.6-67.1c-22.8-57.8-55.6-73.2-55.6-73.2
	c-45.4-31,3.4-30.4,3.4-30.4c50.2,3.5,76.6,51.6,76.6,51.6c44.6,76.5,117.1,54.4,145.6,41.6c4.5-32.3,17.5-54.4,31.8-66.9
	c-111.1-12.6-227.9-55.6-227.9-247.3c0-54.6,19.5-99.3,51.5-134.3c-5.1-12.7-22.3-63.5,4.9-132.4c0,0,42-13.5,137.6,51.3
	c39.9-11.1,82.7-16.6,125.3-16.8c42.5,0.2,85.3,5.7,125.3,16.8c95.5-64.8,137.5-51.3,137.5-51.3c27.3,68.9,10.1,119.8,5,132.4
	c32.1,35,51.4,79.6,51.4,134.3c0,192.2-117,234.5-228.5,246.9c18,15.4,34,46,34,92.7c0,66.9-0.6,120.9-0.6,137.3
	c0,13.4,9,28.9,34.4,24.1C856.8,920.6,1000,733.1,1000,512.1C1000,235.7,775.9,11.7,499.6,11.7z"/>
</svg>
