<?xml version="1.0" encoding="utf-8"?>
<!-- Generator: Adobe Illustrator 19.0.0, SVG Export Plug-In . SVG Version: 6.00 Build 0)  -->
<svg version="1.1" id="Layer_1" xmlns="http://www.w3.org/2000/svg" xmlns:xlink="http://www.w3.org/1999/xlink" x="0px" y="0px"
	 viewBox="0 0 1000 1000" style="enable-background:new 0 0 1000 1000;" xml:space="preserve">
<g id="XMLID_27_">
	<g id="XMLID_181_">
		<path id="XMLID_31_" d="M936.1,214.6H63.9C28.1,214.6,0,186.4,0,150.6s28.1-63.9,63.9-63.9h872.1c35.8,0,63.9,28.1,63.9,63.9
			S971.9,214.6,936.1,214.6z"/>
	</g>
	<g id="XMLID_183_">
		<path id="XMLID_30_" d="M936.1,564.9H63.9C28.1,564.9,0,536.8,0,501s28.1-63.9,63.9-63.9h872.1c35.8,0,63.9,28.1,63.9,63.9
			S971.9,564.9,936.1,564.9z"/>
	</g>
	<g id="XMLID_186_">
		<path id="XMLID_29_" d="M936.1,915.3H63.9C28.1,915.3,0,887.2,0,851.4s28.1-63.9,63.9-63.9h872.1c35.8,0,63.9,28.1,63.9,63.9
			S971.9,915.3,936.1,915.3z"/>
	</g>
</g>
</svg>
