<?xml version="1.0" encoding="utf-8"?>
<!-- Generator: Adobe Illustrator 18.1.1, SVG Export Plug-In . SVG Version: 6.00 Build 0)  -->
<svg version="1.1" id="Layer_1" xmlns="http://www.w3.org/2000/svg" xmlns:xlink="http://www.w3.org/1999/xlink" x="0px" y="0px"
	 viewBox="0 0 1000 1000" enable-background="new 0 0 1000 1000" xml:space="preserve">
<g>
	<path fill="#F4F4F4" d="M700.9,452.7c-67.3,0-76.6,67.1-76.6,67.1h143.1C767.3,519.8,768.2,452.7,700.9,452.7z"/>
	<path fill="#F4F4F4" d="M407.1,400.8c0-45.3-30.8-45.3-30.8-45.3H360H249.5h0v97.2h118.9C389,452.7,407.1,446.1,407.1,400.8z"/>
	<path fill="#F4F4F4" d="M376.3,519.8H249.5v116.4h112.3c1.9,0,4.7,0.1,8.1,0c18-0.4,52.3-5.6,52.3-56.6
		C422.3,519.2,376.3,519.8,376.3,519.8z"/>
	<path fill="#F4F4F4" d="M500.8-0.9C223.9-0.9-0.5,223.5-0.5,500.4s224.5,501.4,501.4,501.4s501.4-224.5,501.4-501.4
		S777.7-0.9,500.8-0.9z M605.5,303.7h179.7v53.6H605.5V303.7z M514.7,585c0,132.9-138.3,128.6-138.3,128.6H249.5h-3.7h-96.1V278
		h96.1h3.7h126.8c68.9,0,123.2,38.1,123.2,116c0,77.9-66.4,82.9-66.4,82.9C520.7,476.9,514.7,585,514.7,585z M850.8,577.9H625.1
		c0,80.9,76.6,75.8,76.6,75.8c72.4,0,69.8-46.8,69.8-46.8h76.7c0,124.3-149,115.8-149,115.8c-178.8,0-167.4-166.5-167.4-166.5
		s-0.1-167.4,167.4-167.4C875.5,388.9,850.8,577.9,850.8,577.9z"/>
</g>
</svg>
