<?xml version="1.0" encoding="utf-8"?>
<!-- Generator: Adobe Illustrator 18.1.1, SVG Export Plug-In . SVG Version: 6.00 Build 0)  -->
<svg version="1.1" id="Layer_1" xmlns="http://www.w3.org/2000/svg" xmlns:xlink="http://www.w3.org/1999/xlink" x="0px" y="0px"
	 viewBox="0 0 100 100" enable-background="new 0 0 100 100" xml:space="preserve">
<a xlink:href="http://behance.net/madebysid" >
	<g>
		<rect x="64.5" y="22.4" fill="#4275BA" width="25.5" height="7.3"/>
		<path fill="#4275BA" d="M78,34.6C54.5,34.6,54.5,58,54.5,58S52.9,81.2,78,81.2c0,0,21,1.3,21-16.5H88.2c0,0,0.4,7-9.8,7
			c0,0-10.8,0.7-10.8-10.3h31.7C99.4,61.4,102.8,34.6,78,34.6z M87.6,53H67.5c0,0,1.3-9.4,10.8-9.4C87.7,43.6,87.6,53,87.6,53z"/>
		<path fill="#4275BA" d="M40.6,46.8c0,0,9.3-0.7,9.3-11.7s-7.6-16.3-17.3-16.3H14.8h-0.5H0.5v61.2h13.8h0.5h17.8
			c0,0,19.5,0.7,19.5-18C52.1,61.9,52.9,46.8,40.6,46.8z M14.7,29.7h15.7h2.3c0,0,4.3,0.1,4.3,6.5c0,6.4-2.6,7.4-5.4,7.4H14.7
			L14.7,29.7L14.7,29.7z M31.7,69.1c-0.5,0-0.9-0.1-1.1-0.1H14.7V53h18c0,0,6.5-0.2,6.5,8.3C39.1,68.5,34.3,69,31.7,69.1z"/>
	</g>
</a>
</svg>
