<?xml version="1.0" encoding="utf-8"?>
<!-- Generator: Adobe Illustrator 18.1.1, SVG Export Plug-In . SVG Version: 6.00 Build 0)  -->
<svg version="1.1" id="Layer_1" xmlns="http://www.w3.org/2000/svg" xmlns:xlink="http://www.w3.org/1999/xlink" x="0px" y="0px"
	 viewBox="0 0 100 100" enable-background="new 0 0 100 100" xml:space="preserve">
<a xlink:href="http://dribbble.com/madebysid" >
	<g>
		<path fill="#E94D8A" d="M50,99.5C22.8,99.5,0.5,77.2,0.5,50S22.8,0.5,50,0.5S99.5,22.8,99.5,50C99.5,77.2,77.2,99.5,50,99.5z
			 M91.8,56.8c-1.5-0.3-13-4-26.3-1.9c5.6,15.2,7.7,27.5,8.4,30C83.1,78.8,89.9,68.6,91.8,56.8z M66.4,89c-0.6-3.7-3.1-16.7-9-32.2
			h-0.3C33.3,65.2,24.6,81.6,24,83.1c7.1,5.6,16.1,9,26,9C55.9,92.4,61.5,91.2,66.4,89z M18.4,78.2c0.9-1.5,12.7-20.7,34.4-27.9
			c0.6-0.3,1.2-0.3,1.5-0.6c-0.9-2.5-2.2-5-3.4-7.1c-21,6.2-41.5,6.2-43.3,5.9c0,0.3,0,0.9,0,1.2C7.6,60.8,11.9,70.7,18.4,78.2z
			 M8.5,41.3c1.9,0,19.2,0,39-5.3C40.4,23.7,33,13.2,31.7,11.6C20.3,17.2,11.3,28.3,8.5,41.3z M40.1,8.8c1.2,1.5,9,12.1,15.8,24.8
			C71,28,77.2,19.4,78.2,18.4C70.7,11.9,60.8,7.9,50,7.9C46.6,7.6,43.2,8.2,40.1,8.8z M82.8,23.4c-0.9,1.2-8,10.2-23.5,16.7
			c0.9,2.2,1.9,4,2.8,6.2c0.3,0.6,0.6,1.5,0.9,2.2c13.9-1.9,28.2,0.9,29.4,1.2C92.1,39.8,88.7,30.5,82.8,23.4z"/>
	</g>
</a>
</svg>
