<?xml version="1.0" encoding="utf-8"?>
<!-- Generator: Adobe Illustrator 18.1.1, SVG Export Plug-In . SVG Version: 6.00 Build 0)  -->
<svg version="1.1" id="Layer_1" xmlns="http://www.w3.org/2000/svg" xmlns:xlink="http://www.w3.org/1999/xlink" x="0px" y="0px"
	 viewBox="0 0 1000 1000" enable-background="new 0 0 1000 1000" xml:space="preserve">
<g>
	<path fill="#F4F4F4" d="M520.8,501.8c3.9-1.3,7.8-2.5,11.8-3.6c-7.5-17-15.7-34-24.2-50.7c-153.6,46-301.1,42.6-306.4,42.5
		c-0.1,3.1-0.3,6.2-0.3,9.4c0,76.7,28.9,146.6,76.5,199.5c0-0.1-0.1-0.1-0.1-0.1S359.8,553.8,520.8,501.8z"/>
	<path fill="#F4F4F4" d="M428.7,209.7c-0.3,0.1-0.6,0.2-0.9,0.3C428.3,209.8,428.6,209.7,428.7,209.7
		C428.6,209.7,428.7,209.7,428.7,209.7z"/>
	<path fill="#F4F4F4" d="M483.7,401.5c-51.7-91.8-106.9-166.6-110.8-172c-83.2,39.3-145.3,116-164.7,208.4
		C216,438.1,340.4,439.5,483.7,401.5z"/>
	<path fill="#F4F4F4" d="M697.3,275.5C644.7,229.2,575.7,201,500.2,201c-24.2,0-47.8,3-70.3,8.4c4.5,5.9,60.5,80.4,111.5,174.1
		C654,341.3,696.5,276.6,697.3,275.5z"/>
	<path fill="#F4F4F4" d="M500.2-2C223.2-2-1.3,222.5-1.3,499.4s224.5,501.4,501.4,501.4c276.9,0,501.4-224.5,501.4-501.4
		S777.1-2,500.2-2z M842.5,569.8c-4.6,22.4-11.5,44.6-20.4,65.7c-8.8,20.7-19.6,40.7-32.2,59.4c-12.5,18.5-26.9,35.9-42.7,51.7
		c-15.8,15.8-33.2,30.1-51.7,42.6c-18.7,12.6-38.6,23.5-59.4,32.2c-21.1,8.9-43.2,15.8-65.7,20.4c-23,4.8-46.7,7.1-70.4,7.1
		c-23.7,0-47.4-2.4-70.4-7.1c-22.4-4.6-44.6-11.4-65.7-20.4c-20.7-8.8-40.7-19.6-59.4-32.2c-18.5-12.5-35.9-26.8-51.7-42.6
		c-15.8-15.8-30.1-33.2-42.6-51.7c-12.6-18.7-23.5-38.7-32.2-59.4c-8.9-21.1-15.8-43.2-20.4-65.7c-4.7-23-7.1-46.7-7.1-70.4
		c0-23.7,2.4-47.4,7.1-70.3c4.6-22.4,11.5-44.6,20.4-65.7c8.8-20.7,19.6-40.7,32.2-59.4c12.5-18.5,26.8-35.9,42.6-51.7
		c15.8-15.8,33.2-30.2,51.7-42.7c18.7-12.6,38.7-23.5,59.4-32.2c21.1-8.9,43.2-15.8,65.7-20.3c23-4.7,46.7-7.1,70.4-7.1
		c23.7,0,47.4,2.4,70.4,7.1c22.5,4.6,44.6,11.4,65.7,20.3c20.7,8.8,40.7,19.6,59.4,32.2c18.5,12.5,35.9,26.8,51.7,42.7
		c15.8,15.8,30.2,33.2,42.7,51.7c12.6,18.7,23.5,38.6,32.2,59.4c8.9,21.1,15.8,43.2,20.4,65.7c4.7,23,7.1,46.7,7.1,70.3
		C849.6,523.1,847.2,546.8,842.5,569.8z"/>
	<path fill="#F4F4F4" d="M550.9,548.3c-176.2,61.4-233.6,185.2-234.1,186.3c50.6,39.5,114.2,63.3,183.4,63.3
		c41.3,0,80.7-8.4,116.5-23.7c-4.4-26.1-21.8-117.5-63.8-226.6C552.3,547.8,551.6,548,550.9,548.3z"/>
	<path fill="#F4F4F4" d="M564.4,428c7,14.2,13.6,28.7,19.8,43.3c2.2,5.2,4.3,10.3,6.4,15.4c102.5-12.9,203.5,8.8,207.8,9.8
		c-0.7-70.8-26-135.8-67.9-186.6C730.1,310.7,682.2,379.9,564.4,428z"/>
	<path fill="#F4F4F4" d="M608.9,533.8c39.1,107.6,55,195.2,58.1,213.2c67-45.3,114.6-117,127.9-200.1
		C788.7,544.8,705.2,518.4,608.9,533.8z"/>
</g>
</svg>
