<?xml version="1.0" encoding="utf-8"?>
<!-- Generator: Adobe Illustrator 18.1.1, SVG Export Plug-In . SVG Version: 6.00 Build 0)  -->
<svg version="1.1" id="Layer_1" xmlns="http://www.w3.org/2000/svg" xmlns:xlink="http://www.w3.org/1999/xlink" x="0px" y="0px"
	 viewBox="0 0 1000 1000" enable-background="new 0 0 1000 1000" xml:space="preserve">
<path fill="#F4F4F4" d="M500.7,15.2C226,15.2,3.3,238,3.3,512.7c0,219.8,142.5,406.2,340.2,472c24.9,4.5,32.7-10.2,32.7-23.4
	c0-11.8,0.2-44.8,0-86.4c-138.4,30.1-167-65.5-167-65.5C186.6,752,154,736.7,154,736.7c-45.2-30.8,3.4-30.3,3.4-30.3
	c49.9,3.5,76.2,51.3,76.2,51.3c44.4,76,116.4,54,144.7,41.3c4.5-32.2,17.4-54.1,31.6-66.5C299.5,720,183.4,677.3,183.4,486.7
	c0-54.3,19.4-98.7,51.2-133.5c-5.1-12.6-22.2-63.2,4.9-131.7c0,0,41.8-13.4,136.8,51c39.7-11,82.3-16.5,124.6-16.7
	c42.3,0.2,84.8,5.7,124.6,16.7c95-64.4,136.7-51,136.7-51c27.1,68.5,10,119.1,4.9,131.7c31.8,34.8,51.1,79.1,51.1,133.5
	c0,191.1-116.3,233.2-227.1,245.5c17.9,15.4,34.1,45.2,34.1,91.6c0,62.2,0,121.3,0,137.7c0,13.3,8,28,33.3,23.2
	c197.5-65.9,339.9-252.3,339.9-472C998.2,238,775.4,15.2,500.7,15.2z"/>
</svg>
