<?xml version="1.0" encoding="utf-8"?>
<!-- Generator: Adobe Illustrator 18.1.1, SVG Export Plug-In . SVG Version: 6.00 Build 0)  -->
<svg version="1.1" id="Layer_1" xmlns="http://www.w3.org/2000/svg" xmlns:xlink="http://www.w3.org/1999/xlink" x="0px" y="0px"
	 viewBox="0 0 100 100" enable-background="new 0 0 100 100" xml:space="preserve">
<a xlink:href="http://github.com/madebysid" >
	<path fill="#F7F7F7" d="M50,1.5C22.7,1.5,0.3,23.9,0.3,51.2c0,22.1,14.3,40.7,33.9,47.2c2.5,0.3,3.4-0.9,3.4-2.5c0-1.2,0-4.3,0-8.7
		c-13.7,3.1-16.8-6.5-16.8-6.5c-2.2-5.6-5.6-7.1-5.6-7.1c-4.7-3.1,0.3-3.1,0.3-3.1c5,0.3,7.8,5,7.8,5c4.3,7.5,11.5,5.3,14.6,4
		c0.3-3.1,1.9-5.3,3.1-6.5c-11.2-1.2-22.7-5.6-22.7-24.5c0-5.3,1.9-9.9,5-13.4c-0.6-1.2-2.2-6.2,0.6-13c0,0,4-1.2,13.7,5
		c4-1.2,8.1-1.6,12.4-1.6s8.4,0.6,12.4,1.6c9.6-6.5,13.7-5,13.7-5c2.8,6.8,0.9,11.8,0.6,13c3.1,3.4,5,7.8,5,13.4
		c0,19-11.5,23.3-22.7,24.5c1.9,1.6,3.4,4.7,3.4,9c0,6.2,0,12.1,0,13.7c0,1.2,0.9,2.8,3.4,2.2c19.9-6.5,33.9-25.2,33.9-47.2
		C99.7,23.9,77.3,1.5,50,1.5z"/>
</a>
</svg>
