<?xml version="1.0" encoding="utf-8"?>
<!-- Generator: Adobe Illustrator 18.1.1, SVG Export Plug-In . SVG Version: 6.00 Build 0)  -->
<svg version="1.1" id="Layer_2" xmlns="http://www.w3.org/2000/svg" xmlns:xlink="http://www.w3.org/1999/xlink" x="0px" y="0px"
	 viewBox="169.7 124.5 443.3 266" enable-background="new 169.7 124.5 443.3 266" xml:space="preserve">
<g>
	<path d="M598,154.5H184.7c-8.3,0-15-6.7-15-15s6.7-15,15-15H598c8.3,0,15,6.7,15,15S606.3,154.5,598,154.5z"/>
</g>
<g>
	<path d="M598,272.5H184.7c-8.3,0-15-6.7-15-15s6.7-15,15-15H598c8.3,0,15,6.7,15,15S606.3,272.5,598,272.5z"/>
</g>
<g>
	<path d="M598,390.4H184.7c-8.3,0-15-6.7-15-15s6.7-15,15-15H598c8.3,0,15,6.7,15,15S606.3,390.4,598,390.4z"/>
</g>
</svg>
