<?xml version="1.0" encoding="utf-8"?>
<!-- Generator: Adobe Illustrator 18.1.1, SVG Export Plug-In . SVG Version: 6.00 Build 0)  -->
<svg version="1.1" id="Layer_1" xmlns="http://www.w3.org/2000/svg" xmlns:xlink="http://www.w3.org/1999/xlink" x="0px" y="0px"
	 viewBox="0 0 100 100" enable-background="new 0 0 100 100" xml:space="preserve">
<a xlink:href="http://stackoverflow.com/users/1708706/madebysid" >
	<g>
		<rect x="23.2" y="78.2" fill="#828185" width="39.4" height="8.4"/>
		
			<rect x="62" y="16" transform="matrix(-0.171 -0.9853 0.9853 -0.171 75.6822 104.1616)" fill="#F37A21" width="39.4" height="8.4"/>
		<polygon fill="#A68A6F" points="62.7,75.7 23.5,72.1 24.3,63.8 63.5,67.4 		"/>
		
			<rect x="26.3" y="51.1" transform="matrix(-0.9657 -0.2596 0.2596 -0.9657 76.0416 120.7118)" fill="#C09451" width="39.4" height="8.4"/>
		<polygon fill="#D28A29" points="66.8,54 32.9,34 37.1,26.8 71.1,46.8 		"/>
		<polygon fill="#F68A21" points="72.4,45.6 50.2,13.1 57.2,8.3 79.4,40.9 		"/>
		<polygon fill="#828185" points="69.2,58.7 69.2,93.4 17.5,93.4 17.5,58.7 10.8,58.7 10.8,99.7 10.9,99.7 12.9,99.7 75.9,99.7 
			75.9,99.9 75.9,97.9 75.9,58.7 		"/>
	</g>
</a>
</svg>
