<?xml version="1.0" encoding="utf-8"?>
<!-- Generator: Adobe Illustrator 18.1.1, SVG Export Plug-In . SVG Version: 6.00 Build 0)  -->
<svg version="1.1" id="Layer_1" xmlns="http://www.w3.org/2000/svg" xmlns:xlink="http://www.w3.org/1999/xlink" x="0px" y="0px"
	 viewBox="0 0 1000 1000" enable-background="new 0 0 1000 1000" xml:space="preserve">
<path fill="#F4F4F4" d="M500.3-2.9C222.3-2.9-3,222.5-3,500.4s225.3,503.3,503.3,503.3c278,0,503.3-225.3,503.3-503.3
	S778.3-2.9,500.3-2.9z M778.3,357.9c0.3,6.2,0.4,12.4,0.4,18.6c0,189.5-144.2,408.1-408.1,408.1c-81,0-156.4-23.7-219.8-64.4
	c11.2,1.3,22.6,2,34.2,2c67.2,0,129-22.9,178.1-61.4c-62.7-1.1-115.7-42.6-134-99.6c8.8,1.7,17.7,2.6,27,2.6c13.1,0,25.8-1.8,37.8-5
	c-65.6-13.2-115.1-71.1-115.1-140.6c0-0.6,0-1.2,0-1.8c19.3,10.7,41.5,17.2,65,18c-38.5-25.7-63.8-69.6-63.8-119.4
	c0-26.3,7.1-50.9,19.4-72.1c70.7,86.8,176.4,143.9,295.6,149.8c-2.5-10.5-3.7-21.5-3.7-32.7c0-79.2,64.2-143.4,143.4-143.4
	c41.2,0,78.5,17.4,104.7,45.3c32.7-6.4,63.4-18.4,91.1-34.8c-10.7,33.5-33.4,61.6-63.1,79.4c29-3.4,56.7-11.2,82.4-22.6
	C830.6,312.4,806.3,337.7,778.3,357.9z"/>
</svg>
