<?xml version="1.0" encoding="utf-8"?>
<!-- Generator: Adobe Illustrator 18.1.1, SVG Export Plug-In . SVG Version: 6.00 Build 0)  -->
<svg version="1.1" id="Layer_1" xmlns="http://www.w3.org/2000/svg" xmlns:xlink="http://www.w3.org/1999/xlink" x="0px" y="0px"
	 viewBox="0 0 100 100" enable-background="new 0 0 100 100" xml:space="preserve">
<a xlink:href="http://twitter.com/madebysid" >
	<g>
		<path fill="#5FA9DD" d="M100.1,20.1c-3.5,1.5-7.4,2.5-11.8,3c4.4-2.5,7.4-6.4,8.9-10.9c-3.9,2.5-8.4,3.9-12.8,4.9
			c-3.5-3.9-8.9-6.4-14.8-6.4c-11.4,0-20.2,8.9-20.2,19.7c0,1.5,0,3,0.5,4.4c-16.8-1-31.6-8.9-42-20.7c-2,3-3,6.4-3,9.9
			c0,6.9,3.5,12.8,8.9,16.8c-3.5,0-6.4-1-9.4-2.5c0,0,0,0,0,0.5c0,9.9,6.9,17.8,16.3,19.7c-1.5,0.5-3.5,0.5-5.4,0.5
			c-1.5,0-2.5,0-3.9-0.5c2.5,7.9,9.9,13.8,18.8,13.8c-6.9,5.4-15.8,8.4-25.2,8.4c-1.5,0-3.5,0-4.9-0.5c8.9,5.4,19.7,8.9,31.1,8.9
			c37,0,57.7-30.6,57.7-56.8c0-1,0-2,0-2.5C93.7,27.5,97.1,24.1,100.1,20.1z"/>
	</g>
</a>
</svg>
